<svg width="18" height="21" viewBox="0 0 18 21" fill="none" xmlns="http://www.w3.org/2000/svg">
<path d="M7.25237 16.8129C7.44776 16.8129 7.57802 16.6699 7.57802 16.5065L7.33921 5.73978C7.33921 5.57634 7.18725 5.43333 7.01357 5.43333C6.83989 5.43333 6.68792 5.57634 6.68792 5.73978L6.92673 16.5065C6.94844 16.6903 7.07869 16.8129 7.25237 16.8129ZM10.7693 16.8129C10.943 16.8129 11.095 16.6699 11.095 16.5065L11.3338 5.73978C11.3338 5.57634 11.2035 5.43333 11.0081 5.43333C10.8345 5.43333 10.6825 5.55591 10.6825 5.73978L10.4437 16.5065C10.4437 16.6699 10.5739 16.8129 10.7693 16.8129ZM15.4586 5.43333C15.2632 5.43333 15.133 5.55592 15.1113 5.71936L14.6336 18.386C14.6336 18.9172 14.1777 19.3462 13.635 19.3462H4.3867C3.82225 19.3462 3.38806 18.9172 3.36635 18.386L2.88874 5.73978C2.88874 5.57634 2.73677 5.43333 2.54138 5.45376C2.3677 5.45376 2.21574 5.59677 2.23745 5.78064L2.71506 18.4269C2.71506 19.2849 3.45319 20 4.36499 20H13.6133C14.5251 20 15.2632 19.3054 15.2632 18.4473L15.7408 5.78064C15.7843 5.57634 15.654 5.43333 15.4586 5.43333ZM16.6744 3.18602H12.7449V1.30645C12.7449 1.14301 12.5929 1 12.4193 1H5.58073C5.40705 1 5.25509 1.14301 5.25509 1.30645V3.18602H1.32564C1.15197 3.18602 1 3.32903 1 3.49247C1 3.65591 1.15197 3.79892 1.32564 3.79892H16.6744C16.848 3.79892 17 3.65591 17 3.49247C17 3.32903 16.8697 3.18602 16.6744 3.18602ZM12.1153 3.18602H5.92809V1.6129H12.1153V3.18602Z" fill="#0D3D2F" stroke="#0D3D2F"/>
</svg>
