<svg width="54" height="54" viewBox="0 0 54 54" fill="none" xmlns="http://www.w3.org/2000/svg">
<circle cx="26.5157" cy="26.5157" r="26.0881" stroke="#D9D9D9" stroke-width="0.855346"/>
<path fill-rule="evenodd" clip-rule="evenodd" d="M20.1538 26.1582C20.1538 25.4036 20.2791 24.6801 20.5028 24.0016L16.5875 21.0117C15.8245 22.561 15.3945 24.3068 15.3945 26.1582C15.3945 28.008 15.8239 29.7527 16.5859 31.301L20.4991 28.3053C20.2776 27.6299 20.1538 26.9091 20.1538 26.1582Z" fill="#FBBC05"/>
<path fill-rule="evenodd" clip-rule="evenodd" d="M27.0277 19.2933C28.667 19.2933 30.1477 19.8742 31.3111 20.8247L34.6955 17.4451C32.6331 15.6497 29.9891 14.5408 27.0277 14.5408C22.4303 14.5408 18.479 17.17 16.5869 21.0116L20.5022 24.0015C21.4044 21.263 23.976 19.2933 27.0277 19.2933Z" fill="#EB4335"/>
<path fill-rule="evenodd" clip-rule="evenodd" d="M27.0277 33.0229C23.976 33.0229 21.4044 31.0532 20.5022 28.3147L16.5869 31.304C18.479 35.1462 22.4303 37.7754 27.0277 37.7754C29.8653 37.7754 32.5744 36.7679 34.6077 34.8801L30.8912 32.0069C29.8426 32.6675 28.5221 33.0229 27.0277 33.0229Z" fill="#34A853"/>
<path fill-rule="evenodd" clip-rule="evenodd" d="M38.1333 26.1581C38.1333 25.4717 38.0276 24.7324 37.8689 24.0459H27.0283V28.5344H33.2683C32.9563 30.0647 32.107 31.2412 30.8918 32.0069L34.6083 34.8801C36.7441 32.8978 38.1333 29.9448 38.1333 26.1581Z" fill="#4285F4"/>
</svg>
