<svg width="29" height="28" viewBox="0 0 29 28" fill="none" xmlns="http://www.w3.org/2000/svg">
<path d="M3.78016 18.3311H3.08424V21.8844H0.82251V25.4656H3.08424V27.0899H3.78016V25.4656H6.0419V21.8844H3.78016V18.3311ZM5.34598 24.7697H1.51843V22.5803H5.34598V24.7697Z" fill="#FA5A7D"/>
<path d="M18.7421 1.22485H18.0462V2.73256H15.7844V8.41299H18.0462V13.1136H18.7421V8.41299H21.0038V2.73256H18.7421V1.22485ZM20.3079 7.71707H16.4803V3.42848H20.3079V7.71707Z" fill="#FA5A7D"/>
<path d="M11.2614 0.122803H10.5654V5.51617H8.30371V22.2972H10.5654V25.0537H11.2614V22.2972H13.5231V5.51617H11.2614V0.122803ZM12.8272 21.6013H8.99963V6.21209H12.8272V21.6013Z" fill="#FA5A7D"/>
<path d="M26.2235 7.66552V5.92224H25.5276V7.66552H23.2659V22.3776H25.5276V26.3356H26.2235V22.3776H28.4853V7.66552H26.2235Z" fill="#FA5A7D"/>
</svg>
