<svg width="25" height="23" viewBox="0 0 25 23" fill="none" xmlns="http://www.w3.org/2000/svg">
<path d="M17.3788 7.2645L13.2224 2.68237L11.8962 4.14439L14.7268 7.2645H17.3788Z" fill="#6C35A8"/>
<path d="M12.9108 0.652431C12.7175 0.477118 12.4694 0.386162 12.2032 0.400523C11.9402 0.413408 11.6987 0.526786 11.5234 0.72005L5.58667 7.26446H8.239L12.9784 2.03986C13.1537 1.84655 13.2432 1.59523 13.2303 1.33223C13.2175 1.06923 13.104 0.82778 12.9108 0.652431Z" fill="#6C35A8"/>
<path d="M1.42759 10.269H21.5386C22.198 10.269 22.7345 9.73255 22.7345 9.0731C22.7345 8.41368 22.198 7.8772 21.5386 7.8772H1.42759C0.768154 7.8772 0.231689 8.41368 0.231689 9.0731C0.231689 9.73255 0.768154 10.269 1.42759 10.269Z" fill="#6C35A8"/>
<path d="M15.5427 16.5142C15.5427 13.8848 17.6819 11.7455 20.3113 11.7455C20.4556 11.7455 20.5978 11.7546 20.7389 11.7672L20.9495 10.8817H2.01611L4.69578 22.1469H18.2699L18.5561 20.9441C16.7936 20.2431 15.5427 18.5236 15.5427 16.5142Z" fill="#6C35A8"/>
<path d="M19.7612 15.7242C19.8238 15.7885 19.8552 15.8773 19.8471 15.9668C19.8387 16.0563 19.7914 16.1376 19.7178 16.1891L17.8987 17.4661L19.3175 18.9187L20.6367 17.1298C20.6899 17.0574 20.7725 17.0122 20.862 17.0059C20.9559 17.0032 21.0397 17.0335 21.1025 17.0978L21.87 17.8835L22.2874 14.5983L18.9938 14.9388L19.7612 15.7242Z" fill="#6C35A8"/>
<path d="M20.3114 12.3584C18.0198 12.3584 16.1555 14.2227 16.1555 16.5143C16.1555 18.8061 18.0198 20.6704 20.3114 20.6704C22.6029 20.6704 24.4673 18.8061 24.4673 16.5143C24.4673 14.2227 22.6029 12.3584 20.3114 12.3584ZM22.3977 18.5898C22.3828 18.7065 22.3026 18.8043 22.1913 18.8417C22.0796 18.8791 21.9567 18.8495 21.8744 18.7651L20.9158 17.7835L19.5966 19.5724C19.5434 19.6448 19.4608 19.69 19.3713 19.6962C19.3642 19.6965 19.3569 19.6968 19.3501 19.6968C19.2678 19.6968 19.1888 19.6636 19.1307 19.6047L17.2084 17.6366C17.1458 17.5722 17.1145 17.4834 17.1225 17.3939C17.1309 17.3044 17.1782 17.2231 17.2518 17.1716L19.0709 15.8946L18.112 14.9132C18.03 14.8289 18.0031 14.7053 18.0431 14.5949C18.0833 14.4842 18.1829 14.4064 18.2999 14.3941L22.6087 13.9489C22.7014 13.9415 22.7939 13.9729 22.8594 14.0396C22.9246 14.1066 22.9557 14.1996 22.944 14.2924L22.3977 18.5898Z" fill="#6C35A8"/>
</svg>
