<svg width="27" height="26" viewBox="0 0 27 26" fill="none" xmlns="http://www.w3.org/2000/svg">
<path d="M17.6743 3.42939V6.78293C17.6743 7.75798 16.1687 7.75798 16.1687 6.78293V3.42939L15.9482 3.64358C15.6542 3.92917 15.1775 3.92917 14.8836 3.64358C14.5896 3.358 14.5896 2.89497 14.8836 2.60938L16.3892 1.14681C16.6831 0.861221 17.1598 0.861221 17.4538 1.14681L18.9594 2.60938C19.2533 2.89497 19.2533 3.358 18.9594 3.64358C18.6654 3.92917 18.1887 3.92917 17.8947 3.64358L17.6743 3.42939ZM23.3202 24.3338H25.5786C25.9944 24.3338 26.3314 24.6613 26.3314 25.0651C26.3314 25.469 25.9944 25.7964 25.5786 25.7964H1.48913C1.07337 25.7964 0.736328 25.469 0.736328 25.0651C0.736328 24.6613 1.07337 24.3338 1.48913 24.3338H3.74752V19.2148C3.74752 18.8109 4.08455 18.4835 4.50031 18.4835H9.76989V16.2897C9.76989 15.8858 10.1069 15.5584 10.5227 15.5584H15.7923V11.1707C15.7923 10.7668 16.1293 10.4394 16.5451 10.4394H22.5674C22.9832 10.4394 23.3202 10.7668 23.3202 11.1707V24.3338ZM11.2755 17.021V24.3338H15.7923V17.021H11.2755ZM17.2979 11.9019V24.3338H21.8146V11.9019H17.2979ZM5.25311 19.9461V24.3338H9.76989V19.9461H5.25311ZM21.4382 5.01744V1.66391C21.4382 1.26003 21.7753 0.932618 22.191 0.932618C22.6068 0.932618 22.9438 1.26003 22.9438 1.66391V5.01744L23.1643 4.80325C23.4583 4.51766 23.935 4.51766 24.2289 4.80325C24.5229 5.08883 24.5229 5.55186 24.2289 5.83745L22.7233 7.30002C22.4294 7.58561 21.9527 7.58561 21.6587 7.30002L20.1531 5.83745C19.8592 5.55186 19.8592 5.08883 20.1531 4.80325C20.4471 4.51766 20.9238 4.51766 21.2178 4.80325L21.4382 5.01744Z" fill="#3E834A"/>
</svg>
