<svg width="27" height="30" viewBox="0 0 27 30" fill="none" xmlns="http://www.w3.org/2000/svg">
<path d="M26.3858 19.7098C26.1529 19.3254 25.7732 19.0431 25.3272 18.9226C24.8811 18.8021 24.4037 18.8529 23.996 19.0643L23.8923 19.1158V12.9401C23.889 12.1839 23.156 11.5309 21.8102 11.0667C22.7789 10.1857 23.45 9.04603 23.7367 7.79514C24.0233 6.54425 23.9124 5.23961 23.4182 4.04986C22.924 2.86012 22.0693 1.83997 20.9645 1.12129C19.8597 0.402604 18.5557 0.0184326 17.2209 0.0184326C15.8862 0.0184326 14.5822 0.402604 13.4774 1.12129C12.3726 1.83997 11.5179 2.86012 11.0237 4.04986C10.5295 5.23961 10.4185 6.54425 10.7052 7.79514C10.9919 9.04603 11.6629 10.1857 12.6317 11.0667C11.2858 11.5309 10.5529 12.1839 10.5495 12.9401V18.4011C10.1327 18.3853 9.71662 18.4462 9.32367 18.5805L4.8568 20.0661L4.07493 18.8783C4.01739 18.7912 3.92616 18.7294 3.82124 18.7068C3.71633 18.6841 3.60632 18.7023 3.51538 18.7573L0.29338 20.7139C0.202503 20.7691 0.138199 20.8567 0.114611 20.9574C0.0910234 21.0581 0.110084 21.1636 0.1676 21.2508L5.3368 29.0889C5.39429 29.1761 5.48551 29.2378 5.5904 29.2605C5.61962 29.2669 5.6495 29.27 5.67947 29.27C5.75626 29.27 5.83149 29.2491 5.89635 29.2096L9.11699 27.2543C9.16214 27.227 9.20121 27.1913 9.23198 27.1494C9.26274 27.1076 9.2846 27.0603 9.29628 27.0103C9.30796 26.9603 9.30925 26.9085 9.30007 26.8581C9.29089 26.8076 9.27141 26.7593 9.24277 26.7161L8.99869 26.3459L9.28016 26.1886L15.2679 27.0185C15.4344 27.042 15.6025 27.0539 15.7707 27.054C16.4013 27.0539 17.0181 26.8765 17.5449 26.5439L25.7202 22.0158C26.1267 21.7943 26.4251 21.4272 26.5499 20.9949C26.6747 20.5626 26.6157 20.1005 26.3858 19.7098ZM11.361 6.42609C11.3606 5.31387 11.704 4.22653 12.3477 3.30159C12.9914 2.37666 13.9065 1.65567 14.9772 1.22982C16.048 0.803968 17.2263 0.692379 18.3631 0.909165C19.4999 1.12595 20.5443 1.66137 21.364 2.44772C22.1837 3.23406 22.7419 4.23601 22.9682 5.32684C23.1944 6.41766 23.0785 7.54837 22.635 8.57596C22.1915 9.60355 21.4404 10.4819 20.4767 11.0998C19.513 11.7178 18.38 12.0476 17.2209 12.0476C15.6676 12.0459 14.1784 11.4531 13.0799 10.3993C11.9814 9.34547 11.3632 7.91662 11.361 6.42609ZM13.3768 11.6548C14.501 12.4178 15.8441 12.8275 17.2211 12.8275C18.5981 12.8275 19.9412 12.4178 21.0654 11.6548C22.451 12.043 23.0768 12.5747 23.0809 12.9437C23.0772 13.6786 20.8488 14.7019 17.2209 14.7019C13.593 14.7019 11.3654 13.6786 11.3613 12.944C11.365 12.5731 11.9909 12.0414 13.3768 11.6532V11.6548ZM11.361 14.21C11.4425 14.2661 11.529 14.3205 11.6203 14.3731C11.7111 14.425 11.8066 14.4755 11.9062 14.5238C11.9729 14.5564 12.0409 14.5881 12.1102 14.6188C13.4122 15.1883 15.3499 15.4855 17.2192 15.4855C19.4948 15.4855 21.8707 15.0451 23.0792 14.2097V16.4279C23.0792 17.1628 20.8502 18.1894 17.2192 18.1894C13.5883 18.1894 11.3593 17.1641 11.3593 16.4279L11.361 14.21ZM11.361 17.6903C12.5698 18.5257 14.9457 18.9661 17.2209 18.9661C19.4962 18.9661 21.8724 18.5257 23.0809 17.6903V19.521L19.1681 21.4642C18.9526 21.1222 18.6174 20.865 18.2224 20.7384L11.4725 18.5691C11.4354 18.557 11.3984 18.5463 11.361 18.5365V17.6903ZM5.80558 28.3439L1.07015 21.1624L3.60478 19.6234L8.34055 26.8045L5.80558 28.3439ZM25.3184 21.3399L17.1329 25.8748L17.1155 25.8849C16.6076 26.2111 15.9898 26.3409 15.3863 26.2483L9.2584 25.4002C9.16768 25.3875 9.07514 25.4047 8.99597 25.4491L8.56628 25.6885L5.30281 20.742L9.59019 19.3161C10.1145 19.1323 10.6892 19.1294 11.2155 19.308L17.9651 21.4769C18.1114 21.5241 18.2435 21.6047 18.3501 21.7119C18.4567 21.819 18.5346 21.9494 18.577 22.0918C18.577 22.0977 18.5797 22.1035 18.5814 22.1094C18.6274 22.273 18.6247 22.4457 18.5736 22.6079C18.3421 23.0319 17.8825 23.3774 17.3603 23.2094L12.4311 21.625C12.3291 21.5923 12.2177 21.5997 12.1214 21.6458C12.0252 21.6919 11.9519 21.7727 11.9178 21.8706C11.8837 21.9685 11.8915 22.0754 11.9395 22.1678C11.9875 22.2602 12.0718 22.3305 12.1738 22.3632L17.103 23.9476C17.2714 24.0021 17.448 24.03 17.6258 24.0301C17.9857 24.0163 18.3344 23.9062 18.6325 23.7121C18.9306 23.5181 19.1662 23.2479 19.3126 22.9321C19.3211 22.9157 19.3283 22.8989 19.3344 22.8815C19.4096 22.667 19.4389 22.4401 19.4207 22.2145L24.3693 19.7542C24.5909 19.6363 24.8517 19.6059 25.0963 19.6693C25.3409 19.7328 25.5502 19.8851 25.6798 20.0941C25.7414 20.1987 25.7809 20.3139 25.796 20.4332C25.8112 20.5525 25.8016 20.6734 25.768 20.7892C25.7343 20.9049 25.6772 21.0131 25.5999 21.1076C25.5225 21.2021 25.4266 21.281 25.3174 21.3399H25.3184ZM18.4043 7.82682C18.4043 7.09938 17.9912 6.98064 17.1319 6.80057C16.3279 6.63225 15.2265 6.40162 15.2265 5.0221C15.222 4.5951 15.3815 4.18148 15.6746 3.86014C15.9677 3.5388 16.3737 3.33222 16.8154 3.27983V2.76899C16.8154 2.66578 16.8581 2.56679 16.9342 2.49381C17.0102 2.42083 17.1134 2.37983 17.2209 2.37983C17.3285 2.37983 17.4316 2.42083 17.5077 2.49381C17.5838 2.56679 17.6265 2.66578 17.6265 2.76899V3.27983C18.0684 3.33217 18.4748 3.5389 18.7679 3.86053C19.0611 4.18215 19.2205 4.59613 19.2157 5.0234C19.2127 5.12471 19.1686 5.22088 19.0928 5.2915C19.0171 5.36212 18.9156 5.40162 18.81 5.40162C18.7044 5.40162 18.6029 5.36212 18.5272 5.2915C18.4514 5.22088 18.4073 5.12471 18.4043 5.0234C18.4106 4.88298 18.3826 4.7431 18.3225 4.61492C18.2624 4.48675 18.1719 4.37383 18.0582 4.2852C17.8174 4.11069 17.5226 4.01879 17.2209 4.02423C16.7814 4.02423 16.0376 4.23463 16.0376 5.02275C16.0376 5.74334 16.4489 5.86142 17.3049 6.04051C18.1112 6.20949 19.2157 6.44077 19.2157 7.82747C19.2202 8.25451 19.0606 8.66817 18.7675 8.98952C18.4743 9.31087 18.0682 9.51741 17.6265 9.56973V10.0796C17.6265 10.1828 17.5838 10.2818 17.5077 10.3548C17.4316 10.4278 17.3285 10.4688 17.2209 10.4688C17.1134 10.4688 17.0102 10.4278 16.9342 10.3548C16.8581 10.2818 16.8154 10.1828 16.8154 10.0796V9.57006C16.4717 9.51532 16.1482 9.37771 15.8751 9.17013C15.6683 9.00794 15.5026 8.8027 15.3907 8.56995C15.2788 8.33721 15.2236 8.08308 15.2292 7.82682C15.2292 7.7236 15.2719 7.62462 15.348 7.55163C15.424 7.47865 15.5272 7.43765 15.6347 7.43765C15.7423 7.43765 15.8455 7.47865 15.9215 7.55163C15.9976 7.62462 16.0403 7.7236 16.0403 7.82682C16.0403 8.61493 16.7841 8.82533 17.2237 8.82533C17.6632 8.82533 18.4043 8.61493 18.4043 7.82682Z" fill="#F4461F"/>
</svg>
