<svg width="26" height="21" viewBox="0 0 26 21" fill="none" xmlns="http://www.w3.org/2000/svg">
<path d="M2.00746 1.92894L2.00741 1.929C-0.326572 4.33159 0.463671 8.24743 3.49602 9.50624C3.49805 9.50708 3.50016 9.50795 3.50234 9.50886C3.58709 9.54395 3.78338 9.62522 3.93184 9.78972C4.14429 10.0251 4.17056 10.3073 4.12683 10.5345C4.09139 10.7186 4.00506 10.9012 3.92317 11.0583C3.83471 11.2279 3.71376 11.4362 3.56608 11.6862L3.56601 11.6863C3.56601 11.6863 3.56544 11.6873 3.56413 11.6895L3.55849 11.6994L3.54005 11.7319L3.48289 11.8337C3.43758 11.9148 3.38035 12.0177 3.3223 12.1227L3.32223 12.1228C3.07849 12.5635 2.59075 13.4362 2.30773 13.9382C2.20051 14.1284 2.0994 14.3112 2.07977 14.3491C1.98458 14.5329 1.16483 15.9998 1.038 16.2137M2.00746 1.92894L0.478853 15.8823M2.00746 1.92894C2.13341 1.79926 2.24981 1.68352 2.33482 1.60225C2.35788 1.58022 2.37725 1.56203 2.39294 1.54755M2.00746 1.92894L1.54118 1.47609C1.80114 1.20841 2.03017 0.989493 2.05013 0.989493C2.06997 0.989493 2.1417 0.941638 2.20931 0.883277M1.038 16.2137L0.478853 15.8823M1.038 16.2137C1.03801 16.2137 1.03802 16.2137 1.03803 16.2137L0.478853 15.8823M1.038 16.2137C0.460513 17.1882 0.769901 18.2133 1.48252 18.5907L1.48264 18.5908C1.59306 18.6493 1.77965 18.7642 1.90928 18.8507C2.01605 18.922 2.34802 19.1292 2.64748 19.3108M0.478853 15.8823C-0.245413 17.1044 0.0683198 18.5773 1.1783 19.1651C1.262 19.2095 1.42853 19.3113 1.54841 19.3913C1.66829 19.4713 2.01134 19.6852 2.3106 19.8666C2.60999 20.0481 2.97274 20.2722 3.11682 20.3646M2.64748 19.3108L2.31074 19.8664L2.64759 19.3108C2.64755 19.3108 2.64752 19.3108 2.64748 19.3108ZM2.64748 19.3108C2.94787 19.4928 3.31649 19.7204 3.4679 19.8176M3.4679 19.8176C3.4679 19.8176 3.46789 19.8176 3.46789 19.8176L3.11682 20.3646M3.4679 19.8176L3.11682 20.3646M3.4679 19.8176C4.23827 20.312 4.69523 20.3691 5.01373 20.2674C5.36161 20.1564 5.78052 19.7866 6.2936 18.8554L6.29364 18.8553C6.65525 18.1992 7.07996 17.4458 7.95459 15.909L7.9546 15.909C8.26709 15.36 8.55157 14.8538 8.59298 14.7747C8.64773 14.6702 8.83899 14.3292 9.01515 14.0208L9.01521 14.0207C9.1923 13.7107 9.45123 13.254 9.59016 13.0066M3.11682 20.3646C4.76869 21.4247 5.8017 21.0951 6.8629 19.169C7.22216 18.5172 7.64492 17.7672 8.51951 16.2305C8.8285 15.6876 9.12065 15.1682 9.1688 15.0763C9.21695 14.9843 9.40182 14.6544 9.57958 14.3431C9.75734 14.032 10.0172 13.5737 10.157 13.3247M9.59016 13.0066L10.157 13.3247M9.59016 13.0066C9.5902 13.0066 9.59024 13.0065 9.59028 13.0064L10.157 13.3247M9.59016 13.0066C9.72656 12.7635 9.86635 12.5168 9.89591 12.4679L9.89602 12.4677L9.89635 12.4671L9.89755 12.4651L9.90162 12.4582L9.91442 12.436L9.95216 12.3697C9.98134 12.3181 10.0164 12.2555 10.05 12.1948C10.1213 12.0661 10.3427 11.6755 10.5414 11.3276L10.5414 11.3275C10.7408 10.9784 10.9564 10.5938 11.0215 10.4724M10.157 13.3247C10.2967 13.0757 10.4296 12.8415 10.4522 12.8041C10.4747 12.7668 10.5496 12.6343 10.6186 12.5098C10.6876 12.3853 10.9069 11.9984 11.1058 11.6499C11.3049 11.3013 11.5247 10.9095 11.5945 10.7793M11.0215 10.4724C11.0214 10.4725 11.0214 10.4725 11.0213 10.4726L11.5945 10.7793M11.0215 10.4724L11.5945 10.7793M11.0215 10.4724C11.0228 10.47 11.0248 10.4658 11.0277 10.4602C11.0505 10.4151 11.1211 10.2754 11.207 10.1742C11.356 9.99906 11.5403 9.91261 11.7244 9.86989C11.8755 9.83482 12.0526 9.82368 12.2334 9.81662C12.385 9.8107 12.5775 9.80685 12.8149 9.8021C12.8763 9.80087 12.9407 9.79958 13.0082 9.79818C13.8958 9.77977 14.3087 9.70344 14.5555 9.57231C14.7464 9.47089 14.9054 9.29949 15.1173 8.81062M11.5945 10.7793C11.6438 10.687 11.6723 10.6226 11.7192 10.5772C11.836 10.4637 12.067 10.4679 13.0217 10.448C14.785 10.4115 15.255 10.1618 15.742 9.00277L14.0243 0.678981L14.0245 0.679M15.1173 8.81062C15.1161 8.82089 15.1151 8.82909 15.1143 8.83544L15.1132 8.8435C15.1129 8.84544 15.1127 8.84634 15.1127 8.84634L15.1129 8.84536L15.1135 8.84244C15.114 8.83997 15.1149 8.83543 15.1165 8.82925C15.1184 8.82119 15.126 8.79066 15.1427 8.75089L15.1427 8.75098C15.1341 8.77137 15.1257 8.79124 15.1173 8.81062ZM15.1173 8.81062C15.1174 8.80946 15.1175 8.80828 15.1177 8.80707C15.123 8.75719 15.1289 8.6823 15.135 8.58112C15.1469 8.38035 15.1578 8.10256 15.1672 7.76923C15.186 7.10406 15.1985 6.23662 15.2035 5.36277C15.2085 4.48899 15.206 3.61314 15.195 2.93124C15.1895 2.58971 15.1819 2.30092 15.1722 2.08689C15.1674 1.97939 15.1623 1.89587 15.1571 1.83631C15.1548 1.80889 15.1528 1.79196 15.1518 1.78325M15.1518 1.78325C15.154 1.79093 15.1562 1.79864 15.1584 1.80639C15.1532 1.78778 15.151 1.77592 15.1509 1.77594C15.1508 1.77595 15.1512 1.77825 15.1518 1.78325ZM15.1518 1.78325C14.9694 1.16002 14.5271 0.771022 14.0423 0.682141M14.0423 0.682141C14.0429 0.682147 14.0432 0.68213 14.0432 0.682086C14.0432 0.681861 14.036 0.68094 14.0245 0.679M14.0423 0.682141C14.0375 0.682086 14.0117 0.680319 13.952 0.678273C13.8735 0.675579 13.7638 0.672995 13.6256 0.67058C13.3498 0.665761 12.9705 0.661779 12.5203 0.658645C11.6204 0.652382 10.4441 0.649555 9.26198 0.650057C8.07988 0.650559 6.89342 0.65439 5.97323 0.661422C5.51291 0.66494 5.12066 0.669248 4.82942 0.67431C4.68359 0.676845 4.56502 0.679537 4.47676 0.682344C4.38607 0.685228 4.3479 0.687717 4.34271 0.688056C4.34228 0.688084 4.34207 0.688097 4.34209 0.688094C4.13552 0.711171 3.78065 0.813251 3.40894 0.964982C3.02878 1.12016 2.74228 1.28202 2.63369 1.37562M14.0423 0.682141C14.0364 0.681049 14.0304 0.680002 14.0245 0.679M14.0245 0.679L2.63369 1.37562M2.63369 1.37562C2.63381 1.37552 2.63392 1.37542 2.63403 1.37532L2.20931 0.883277M2.63369 1.37562L4.26996 0.0421086M2.63369 1.37562L2.20931 0.883277M2.63369 1.37562C2.58257 1.41972 2.52659 1.46292 2.47258 1.49896C2.45161 1.51295 2.42428 1.53033 2.39294 1.54755M2.20931 0.883277C2.59327 0.552309 3.68241 0.107732 4.26996 0.0421086M4.26996 0.0421086L4.34209 0.688094C4.3421 0.688093 4.3421 0.688093 4.34211 0.688092L4.26996 0.0421086ZM2.39294 1.54755C2.40678 1.53479 2.41776 1.52492 2.42587 1.51784C2.43023 1.51405 2.43222 1.51241 2.43222 1.51241C2.43222 1.51241 2.42893 1.51512 2.42314 1.51947L2.42304 1.51954C2.41896 1.5226 2.40062 1.53635 2.37351 1.5523C2.36017 1.56014 2.3325 1.5758 2.29497 1.59124C2.27564 1.5992 2.24687 1.60993 2.21089 1.61918C2.17672 1.62797 2.12053 1.63949 2.05013 1.63949C2.16381 1.63949 2.25018 1.60955 2.2781 1.5996C2.31747 1.58557 2.34924 1.57033 2.36951 1.55998C2.37753 1.55588 2.38536 1.55172 2.39294 1.54755ZM25.1258 8.22707L25.1256 8.22696L24.998 8.15803L22.4126 8.16108C21.0828 8.16264 20.4068 8.16437 20.0374 8.17606C19.85 8.18199 19.771 8.18988 19.7364 8.19543C19.7362 8.19546 19.7361 8.19548 19.7359 8.1955C19.571 8.27149 19.5696 8.3021 19.5694 8.30602C19.5694 8.30623 19.5694 8.30637 19.5694 8.30643C19.5407 8.37164 19.5064 8.53224 19.5071 8.98691L25.1258 8.22707ZM25.1258 8.22707C25.2124 8.27379 25.2342 8.29306 25.2386 8.29717C25.2402 8.29863 25.2427 8.301 25.2479 8.30769C25.2539 8.31559 25.2646 8.33075 25.2818 8.35977C25.2818 8.35978 25.2818 8.35979 25.2818 8.3598L25.3251 8.43284V8.97904C25.3251 9.19714 25.32 9.3532 25.3087 9.47086C25.2973 9.58873 25.2817 9.642 25.2734 9.66337C25.2697 9.67295 25.269 9.67355 25.2673 9.67508C25.2669 9.67538 25.2665 9.67573 25.2661 9.6762C25.2596 9.68251 25.2457 9.69454 25.2168 9.71371C25.1887 9.71665 25.1533 9.71989 25.11 9.7233C24.9603 9.73507 24.7493 9.74638 24.492 9.75667C23.9793 9.77717 23.306 9.79274 22.6213 9.80135C21.9368 9.80995 21.246 9.81152 20.6986 9.80431C20.4244 9.8007 20.1902 9.79494 20.0124 9.78702C19.8561 9.78005 19.7779 9.77248 19.7536 9.77013C19.7464 9.76943 19.7439 9.76919 19.7456 9.76956C19.6598 9.75024 19.626 9.73044 19.6165 9.72394M25.1258 8.22707L19.6165 9.72394M19.6999 20.2996C19.7336 20.3036 19.8023 20.3094 19.9347 20.3143C20.2947 20.3278 20.977 20.3312 22.3658 20.3374L24.9916 20.3493L25.1292 20.2767C25.1292 20.2767 25.1292 20.2767 25.1292 20.2767C25.286 20.194 25.2922 20.163 25.2941 20.1536C25.2943 20.1528 25.2944 20.1521 25.2946 20.1516L19.6999 20.2996ZM19.6999 20.2996C19.5663 20.2226 19.5629 20.1965 19.5622 20.1905C19.5621 20.19 19.5621 20.1897 19.562 20.1894C19.5352 20.1223 19.5064 19.9655 19.5071 19.5173C19.5077 19.074 19.5448 18.9079 19.5757 18.8393C19.584 18.8208 19.589 18.816 19.5965 18.8095C19.6093 18.7986 19.6413 18.7754 19.7167 18.7421C19.7445 18.7385 19.8412 18.7281 20.0888 18.7224C20.4839 18.7133 21.1793 18.7139 22.4679 18.7182L25.0944 18.7271L25.1135 18.7387L25.1137 18.7388C25.2107 18.7981 25.2524 18.8311 25.2721 18.8498C25.2818 18.8591 25.2824 18.8608 25.2828 18.8624C25.2829 18.8626 25.283 18.8629 25.2831 18.8632C25.2876 18.8735 25.3015 18.9109 25.3137 19.0079C25.3262 19.1061 25.334 19.239 25.3391 19.4325L19.6999 20.2996ZM19.6165 9.72394L19.6158 9.72348M19.6165 9.72394L19.6158 9.72348M19.6158 9.72348C19.612 9.72091 19.6064 9.71721 19.5959 9.69733M19.6158 9.72348L19.5959 9.69733M19.5959 9.69733C19.5583 9.62581 19.5077 9.44153 19.5071 8.98696L19.5959 9.69733ZM25.3026 15.836L25.3026 15.836L25.2512 15.8627L22.4068 15.8533L19.5583 15.8439L19.5135 15.821C19.5135 15.8209 19.5134 15.8208 19.5133 15.8207C19.5068 15.8087 19.4992 15.787 19.4964 15.7592C19.5086 15.7584 19.5214 15.7576 19.5347 15.7568C19.7113 15.7463 19.9586 15.7372 20.2574 15.7297C20.8533 15.7147 21.6328 15.7068 22.4151 15.7061C23.1975 15.7055 23.9777 15.7122 24.575 15.7263C24.8745 15.7333 25.1227 15.7421 25.3005 15.7523C25.3166 15.7532 25.3319 15.7542 25.3464 15.7551C25.3423 15.776 25.335 15.795 25.3264 15.8097C25.3155 15.8284 25.3063 15.8341 25.3026 15.836ZM19.5073 1.42014C19.5078 0.991519 19.5595 0.807087 19.5981 0.734092C19.61 0.71156 19.6165 0.707766 19.6178 0.706988C19.6179 0.706938 19.618 0.706901 19.618 0.706872C19.622 0.704094 19.642 0.69134 19.6944 0.678633C19.7011 0.678184 19.7104 0.677621 19.7226 0.676996C19.7663 0.674764 19.8285 0.6725 19.9091 0.670317C20.0695 0.665973 20.2891 0.662295 20.5501 0.659341C21.0714 0.653441 21.748 0.650527 22.4245 0.650608C23.1011 0.650689 23.7753 0.653764 24.2918 0.659784C24.5504 0.662799 24.767 0.666524 24.9236 0.670895C25.0024 0.673094 25.0623 0.675356 25.1033 0.67755C25.1075 0.677773 25.1113 0.677989 25.1148 0.678195C25.1753 0.695728 25.2044 0.71293 25.2171 0.721996C25.2278 0.729642 25.2394 0.739838 25.2544 0.769152C25.297 0.852065 25.3473 1.04874 25.3373 1.49551C25.3273 1.93691 25.2762 2.10137 25.2425 2.16175C25.2337 2.1774 25.229 2.18129 25.2199 2.18733C25.2057 2.19679 25.17 2.21619 25.0921 2.23771C25.0862 2.23827 25.0784 2.23896 25.0685 2.23973C25.0274 2.24293 24.9682 2.24633 24.8904 2.2497C24.7358 2.25641 24.5253 2.2623 24.2746 2.26721C23.7742 2.277 23.1271 2.28264 22.475 2.28381C21.823 2.28497 21.1692 2.28165 20.6553 2.27366C20.398 2.26966 20.1787 2.26453 20.0135 2.25835C19.8698 2.25298 19.7966 2.24755 19.7728 2.24578C19.7654 2.24523 19.7628 2.24504 19.7642 2.24531C19.6643 2.22722 19.6249 2.2065 19.614 2.19972C19.6137 2.19951 19.6133 2.19932 19.613 2.19913C19.6102 2.19757 19.6068 2.19568 19.5982 2.17975C19.5597 2.1084 19.5068 1.91566 19.5073 1.42014ZM19.5809 5.2578C19.5506 5.25579 19.5233 5.25378 19.499 5.25182C19.4968 5.24022 19.4954 5.2271 19.495 5.21276C19.495 5.21268 19.495 5.21259 19.495 5.21251C19.5077 5.21173 19.521 5.21095 19.5349 5.21016C19.7114 5.2002 19.9586 5.19148 20.2573 5.18429C20.8528 5.16996 21.6326 5.16214 22.415 5.16119C23.1973 5.16024 23.9775 5.16615 24.574 5.17904C24.8731 5.1855 25.121 5.19361 25.2981 5.20315C25.3143 5.20402 25.3297 5.20489 25.3442 5.20576C25.3427 5.22041 25.3398 5.23437 25.3359 5.24702C25.3155 5.24869 25.293 5.25039 25.2684 5.25212C25.0964 5.26415 24.8542 5.27472 24.5601 5.28343C23.9738 5.30079 23.2058 5.31003 22.4335 5.31082C21.6614 5.3116 20.8907 5.30391 20.2993 5.28774C20.0027 5.27963 19.757 5.26953 19.5809 5.2578ZM19.5204 12.7922C19.5117 12.7719 19.5033 12.7404 19.5028 12.7027C19.504 12.7026 19.5052 12.7025 19.5064 12.7025C19.572 12.6992 19.6567 12.6962 19.7593 12.6936C19.9643 12.6885 20.2303 12.6854 20.5375 12.6841C21.1515 12.6814 21.9204 12.6861 22.6763 12.6959C23.4325 12.7057 24.1721 12.7206 24.7281 12.7383C24.9605 12.7457 25.1575 12.7536 25.3088 12.7615C25.3048 12.7618 25.3008 12.7621 25.2967 12.7624C25.1295 12.7746 24.895 12.7858 24.6104 12.7957C24.0432 12.8154 23.3001 12.829 22.549 12.8349C21.798 12.8409 21.0441 12.8391 20.4554 12.8285C20.1604 12.8232 19.9115 12.8158 19.7269 12.8062C19.6384 12.8017 19.5698 12.7969 19.5204 12.7922Z" stroke="black" stroke-width="1.3"/>
</svg>
