<svg width="25" height="25" viewBox="0 0 25 25" fill="none" xmlns="http://www.w3.org/2000/svg">
<path d="M23.6784 10.5047L22.135 10.1049C22.0585 10.0843 21.9997 10.0226 21.9733 9.94024C21.7939 9.34932 21.5529 8.7731 21.2618 8.22628C21.2206 8.14984 21.2206 8.06165 21.2618 7.99403L22.0703 6.61815C22.3261 6.18305 22.2555 5.63035 21.8998 5.27168L20.2358 3.60769C19.8771 3.24903 19.3244 3.18141 18.8893 3.43718L17.5134 4.24565C17.4458 4.28681 17.3576 4.28387 17.2812 4.24565C16.7314 3.95166 16.1552 3.71353 15.5672 3.5342C15.4849 3.50774 15.4232 3.44894 15.4026 3.3725L15.0028 1.82905C14.8763 1.34103 14.4354 1 13.9297 1H11.5778C11.0721 1 10.6311 1.34103 10.5047 1.82905L10.1049 3.3725C10.0843 3.44894 10.0226 3.51068 9.94024 3.5342C9.34932 3.71353 8.7731 3.9546 8.22628 4.24565C8.14984 4.28681 8.06165 4.28681 7.99403 4.24565L6.61815 3.43718C6.18305 3.18141 5.63035 3.25197 5.27168 3.60769L3.60769 5.27168C3.25197 5.62741 3.17847 6.18305 3.43718 6.61815L4.24565 7.99403C4.28681 8.06165 4.28387 8.14984 4.24565 8.22628C3.9546 8.7731 3.71353 9.35226 3.5342 9.94024C3.50774 10.0226 3.44894 10.0843 3.3725 10.1049L1.82905 10.5047C1.34103 10.6311 1 11.0721 1 11.5778V13.9297C1 14.4354 1.34103 14.8763 1.82905 15.0028L3.3725 15.4026C3.44894 15.4232 3.50774 15.4849 3.5342 15.5672C3.71353 16.1581 3.9546 16.7344 4.24565 17.2812C4.28681 17.3576 4.28681 17.4458 4.24565 17.5134L3.43718 18.8893C3.18141 19.3244 3.25197 19.8771 3.60769 20.2358L5.27168 21.8998C5.63035 22.2584 6.18305 22.3261 6.61815 22.0703L7.99403 21.2618C8.06165 21.2206 8.14984 21.2236 8.22628 21.2618C8.7731 21.5529 9.35226 21.7939 9.94024 21.9733C10.0226 21.9997 10.0843 22.0585 10.1049 22.135L10.5047 23.6784C10.6311 24.1664 11.0721 24.5075 11.5778 24.5075H13.9297C14.4354 24.5075 14.8763 24.1664 15.0028 23.6784L15.4026 22.135C15.4232 22.0585 15.4849 21.9968 15.5672 21.9733C16.1581 21.7939 16.7344 21.5529 17.2812 21.2618C17.3576 21.2206 17.4458 21.2206 17.5134 21.2618L18.8893 22.0703C19.3244 22.3261 19.8771 22.2555 20.2358 21.8998L21.8998 20.2358C22.2555 19.8801 22.329 19.3244 22.0703 18.8893L21.2618 17.5134C21.2206 17.4458 21.2236 17.3576 21.2618 17.2812C21.5558 16.7344 21.7939 16.1552 21.9733 15.5672C21.9997 15.4849 22.0585 15.4232 22.135 15.4026L23.6784 15.0028C24.1664 14.8763 24.5075 14.4354 24.5075 13.9297V11.5778C24.5075 11.0721 24.1664 10.6311 23.6784 10.5047ZM23.6255 13.9297C23.6255 14.0326 23.5549 14.1237 23.455 14.1502L21.9115 14.55C21.5352 14.647 21.2442 14.9322 21.1266 15.3114C20.9619 15.8465 20.7444 16.3698 20.4798 16.8696C20.2916 17.2194 20.2975 17.6281 20.4945 17.9632L21.303 19.3391C21.3559 19.4273 21.3412 19.542 21.2677 19.6125L19.6037 21.2765C19.5302 21.35 19.4155 21.3647 19.3303 21.3118L17.9544 20.5033C17.6193 20.3063 17.2106 20.3005 16.8608 20.4886C16.3639 20.7532 15.8406 20.9708 15.3056 21.1354C14.9263 21.25 14.6411 21.544 14.5441 21.9203L14.1443 23.4638C14.1178 23.5638 14.0296 23.6343 13.9268 23.6343H11.5748C11.4719 23.6343 11.3808 23.5638 11.3543 23.4638L10.9545 21.9203C10.8575 21.544 10.5723 21.253 10.1931 21.1354C9.65801 20.9708 9.13471 20.7532 8.63493 20.4886C8.46441 20.3975 8.2792 20.3534 8.09692 20.3534C7.90289 20.3534 7.7118 20.4034 7.53834 20.5063L6.16247 21.3147C6.07427 21.3676 5.96256 21.3529 5.88906 21.2794L4.22507 19.6155C4.15158 19.542 4.13688 19.4303 4.18979 19.3421L4.99827 17.9662C5.19524 17.631 5.20112 17.2224 5.01297 16.8725C4.74838 16.3757 4.53082 15.8494 4.36619 15.3144C4.25153 14.9351 3.95754 14.65 3.58123 14.5529L2.03779 14.1531C1.93783 14.1267 1.86727 14.0385 1.86727 13.9326V11.5807C1.86727 11.4778 1.93783 11.3867 2.03779 11.3632L3.58123 10.9633C3.95754 10.8663 4.24859 10.5811 4.36619 10.2019C4.53082 9.66683 4.74838 9.14353 5.01297 8.64375C5.20112 8.2939 5.19524 7.88525 4.99827 7.5501L4.18979 6.17423C4.13688 6.08603 4.15158 5.97137 4.22507 5.90082L5.88906 4.23683C5.96256 4.16334 6.07427 4.14864 6.16247 4.20155L7.53834 5.01003C7.87349 5.207 8.28214 5.21288 8.63199 5.02473C9.12883 4.76013 9.65213 4.53964 10.1872 4.37795C10.5664 4.26329 10.8516 3.9693 10.9486 3.59299L11.3485 2.04955C11.3749 1.94959 11.4631 1.87903 11.5689 1.87903H13.9209C14.0238 1.87903 14.1149 1.94959 14.1384 2.04955L14.5383 3.59299C14.6353 3.9693 14.9204 4.26035 15.2997 4.37795C15.8347 4.54258 16.3581 4.76013 16.8549 5.02473C17.2047 5.21288 17.6134 5.207 17.9485 5.01003L19.3244 4.20155C19.4126 4.14864 19.5273 4.16334 19.5978 4.23683L21.2618 5.90082C21.3353 5.97432 21.35 6.08603 21.2971 6.17423L20.4886 7.5501C20.2916 7.88525 20.2858 8.2939 20.4739 8.64375C20.7385 9.14059 20.9561 9.66389 21.1207 10.2019C21.2353 10.5811 21.5293 10.8663 21.9056 10.9633L23.4491 11.3632C23.5491 11.3896 23.6196 11.4778 23.6196 11.5807V13.9326L23.6255 13.9297Z" fill="black" stroke="black" stroke-width="0.5"/>
</svg>
