<svg width="12" height="11" viewBox="0 0 12 11" fill="none" xmlns="http://www.w3.org/2000/svg">
<path d="M9.38135 2.25229C8.88451 1.3909 7.95844 0.855835 6.96181 0.855835H4.53345C3.53976 0.855835 2.61076 1.3909 2.11391 2.25229L0.899732 4.35432C0.402889 5.21571 0.402889 6.28584 0.899732 7.14723L2.11391 9.2522C2.61076 10.1136 3.53682 10.6487 4.53345 10.6487H6.96181C7.9555 10.6487 8.88451 10.1136 9.38135 9.2522L10.5955 7.15017C11.0924 6.28877 11.0924 5.21865 10.5955 4.35726L9.38135 2.25229ZM9.83116 6.70918L8.61698 8.81415C8.27595 9.40213 7.64093 9.76962 6.96181 9.76962H4.53345C3.85433 9.76962 3.21932 9.40213 2.87829 8.81415L1.66411 6.70918C1.32308 6.1212 1.32308 5.38916 1.66411 4.79824L2.87829 2.69327C3.21932 2.10529 3.85433 1.73781 4.53345 1.73781H6.96181C7.64093 1.73781 8.27595 2.10529 8.61698 2.69327L9.83116 4.79824C10.1722 5.38622 10.1722 6.11826 9.83116 6.70918Z" fill="black" stroke="black" stroke-width="0.5"/>
</svg>
