<svg width="20" height="27" viewBox="0 0 20 27" fill="none" xmlns="http://www.w3.org/2000/svg">
<path d="M19.9849 23.0744L18.5184 7.64151C18.4247 6.71254 17.6135 5.99334 16.6462 5.99334H15.6165V5.39401C15.6165 2.4273 13.0891 0 10 0C6.91093 0 4.38351 2.4273 4.38351 5.39401V5.99334H3.35382C2.38653 5.99334 1.57526 6.68258 1.48165 7.64151L0.0151218 23.0744C-0.0784864 24.0633 0.264744 25.0821 0.982407 25.8313C1.70007 26.5805 2.69856 27 3.75945 27H16.2405C17.3014 27 18.2999 26.5805 19.0176 25.8313C19.7353 25.0821 20.0785 24.0932 19.9849 23.0744ZM5.63162 5.42397C5.63162 3.11654 7.59739 1.22863 10 1.22863C12.4026 1.22863 14.3684 3.11654 14.3684 5.42397V6.02331H5.63162V5.42397ZM18.1127 25.0222C17.6135 25.5316 16.9582 25.8013 16.2405 25.8013H3.75945C3.04179 25.8013 2.38653 25.5316 1.91849 25.0222C1.45045 24.5128 1.20083 23.8535 1.26323 23.1942L2.72976 7.76138C2.76096 7.46171 3.04179 7.22198 3.35382 7.22198H5.00756H14.9924H16.6462C16.9582 7.22198 17.239 7.46171 17.2702 7.76138L18.7368 23.1942C18.7992 23.8535 18.5808 24.5128 18.1127 25.0222Z" fill="black"/>
</svg>
