<svg width="27" height="21" viewBox="0 0 27 21" fill="none" xmlns="http://www.w3.org/2000/svg">
<path d="M4.5875 5.25C4.5875 4.03 5.07214 2.85998 5.93481 1.99731C6.79748 1.13464 7.9675 0.65 9.1875 0.65C10.4075 0.65 11.5775 1.13464 12.4402 1.99731C13.3029 2.85998 13.7875 4.03 13.7875 5.25C13.7875 6.47 13.3029 7.64002 12.4402 8.50269C11.5775 9.36536 10.4075 9.85 9.1875 9.85C7.9675 9.85 6.79748 9.36536 5.93481 8.50269C5.07214 7.64002 4.5875 6.47 4.5875 5.25ZM0.65 19.7818C0.65 16.1008 3.63203 13.1187 7.31309 13.1187H11.0619C14.743 13.1187 17.725 16.1008 17.725 19.7818C17.725 20.0955 17.4705 20.35 17.1568 20.35H1.21816C0.904493 20.35 0.65 20.0955 0.65 19.7818ZM24.9908 20.35H20.2695C20.3139 20.1366 20.3375 19.9151 20.3375 19.6875V19.3594C20.3375 17.2435 19.5932 15.2975 18.3542 13.775H19.6342C22.9297 13.775 25.6 16.4453 25.6 19.7408C25.6 20.0777 25.3264 20.35 24.9908 20.35ZM17.7188 9.85C16.8182 9.85 15.9899 9.54857 15.3254 9.04071C16.0076 7.93833 16.4 6.63896 16.4 5.25C16.4 4.25596 16.1982 3.30637 15.8321 2.44251C16.3936 2.13676 17.0356 1.9625 17.7188 1.9625C19.8986 1.9625 21.6625 3.72637 21.6625 5.90625C21.6625 8.08613 19.8986 9.85 17.7188 9.85Z" stroke="black" stroke-width="1.3"/>
</svg>
