<svg width="42" height="44" viewBox="0 0 42 44" fill="none" xmlns="http://www.w3.org/2000/svg">
<path d="M10.1386 30.9207H1.7749V38.8261H10.1386V30.9207Z" fill="#3E834A"/>
<path d="M24.4694 24.2388H16.1057V38.8263H24.4694V24.2388Z" fill="#3E834A"/>
<path d="M38.8004 17.0862H30.4368V38.8263H38.8004V17.0862Z" fill="#3E834A"/>
<path d="M1.18269 43.4566C1.52099 43.4566 1.864 43.4566 2.2023 43.4566C3.12794 43.4566 4.05359 43.4566 4.97923 43.4566C6.35594 43.4566 7.72796 43.4566 9.10468 43.4566C10.7774 43.4566 12.4454 43.4566 14.1182 43.4566C15.946 43.4566 17.7785 43.4566 19.6062 43.4566C21.4528 43.4566 23.2994 43.4566 25.146 43.4566C26.8704 43.4566 28.5901 43.4566 30.3146 43.4566C31.7759 43.4566 33.2371 43.4566 34.6984 43.4566C35.7462 43.4566 36.7894 43.4566 37.8372 43.4566C38.3305 43.4566 38.8286 43.466 39.3219 43.4566C39.3454 43.4566 39.3642 43.4566 39.3877 43.4566C39.9892 43.4566 40.5671 42.9248 40.5389 42.3037C40.5107 41.6778 40.0315 41.1508 39.3877 41.1508C39.0494 41.1508 38.7064 41.1508 38.3681 41.1508C37.4425 41.1508 36.5168 41.1508 35.5912 41.1508C34.2145 41.1508 32.8425 41.1508 31.4657 41.1508C29.793 41.1508 28.125 41.1508 26.4522 41.1508C24.6244 41.1508 22.792 41.1508 20.9642 41.1508C19.1176 41.1508 17.271 41.1508 15.4244 41.1508C13.7 41.1508 11.9803 41.1508 10.2559 41.1508C8.79456 41.1508 7.33327 41.1508 5.87198 41.1508C4.82417 41.1508 3.78106 41.1508 2.73325 41.1508C2.23989 41.1508 1.74183 41.1414 1.24847 41.1508C1.22498 41.1508 1.20618 41.1508 1.18269 41.1508C0.581255 41.1508 0.00331634 41.6825 0.0315085 42.3037C0.0597006 42.9248 0.538967 43.4566 1.18269 43.4566Z" fill="#3E834A"/>
<path d="M33.1432 10.5123C33.6977 10.5123 34.2521 10.5123 34.8066 10.5123C35.3328 10.5123 35.8215 10.3523 36.2209 9.99938C36.7659 9.5147 36.9868 8.71474 36.7894 8.0183C36.6015 7.35951 36.047 6.79954 35.3704 6.64425C35.0368 6.56896 34.6327 6.55955 34.285 6.58778C34.2192 6.59249 34.1441 6.56896 34.3085 6.6019C34.2474 6.59249 34.1863 6.57367 34.13 6.55484C34.3132 6.6019 34.1582 6.55955 34.1065 6.53602C33.9467 6.46073 34.1957 6.65366 34.083 6.5172C34.0454 6.47485 33.9561 6.33368 34.0548 6.49838C34.0219 6.44661 33.9937 6.39485 33.9655 6.33838C34.0595 6.5172 33.9843 6.34779 33.9702 6.30074C33.9514 6.20663 33.9514 6.22074 33.9749 6.33368C33.9702 6.29133 33.9702 6.24898 33.9749 6.20192C33.9843 6.39485 33.9796 6.23486 33.989 6.17369C34.0172 5.99487 33.8997 6.29133 33.9984 6.14545C34.0219 6.11251 34.0407 6.07487 34.0595 6.04193C33.9608 6.21133 34.0501 6.06546 34.0877 6.0231C34.2051 5.89135 33.9514 6.07957 34.1112 6.00428C34.1629 5.98075 34.3179 5.9384 34.1347 5.98546C34.1957 5.97134 34.2521 5.95252 34.3132 5.9384C34.1441 5.97134 34.2286 5.94781 34.2897 5.95252C34.8677 5.98546 35.4597 5.95252 36.0376 5.95252C36.4699 5.95252 36.8787 5.57607 36.8599 5.12903C36.8411 4.68199 36.4981 4.30554 36.0376 4.30554C35.4832 4.30554 34.9287 4.30554 34.3743 4.30554C33.848 4.30554 33.3594 4.46553 32.96 4.81846C32.4149 5.30314 32.1941 6.1031 32.3914 6.79954C32.5794 7.45833 33.1338 8.0183 33.8105 8.17359C34.1441 8.24888 34.5481 8.25829 34.8958 8.23005C34.9616 8.22535 35.0368 8.24888 34.8724 8.21594C34.9334 8.23005 34.9945 8.24417 35.0509 8.26299C34.8677 8.21594 35.0227 8.25829 35.0744 8.28182C35.2342 8.35711 34.9851 8.16418 35.0979 8.30064C35.1355 8.34299 35.2248 8.48416 35.1261 8.31946C35.159 8.37122 35.1872 8.42299 35.2154 8.47945C35.1214 8.30064 35.1966 8.47004 35.2107 8.5171C35.2295 8.61121 35.2295 8.5971 35.206 8.48416C35.2107 8.52651 35.2107 8.56886 35.206 8.61121C35.1966 8.41828 35.2013 8.57827 35.1919 8.63945C35.1637 8.81826 35.2811 8.52181 35.1825 8.66768C35.159 8.70062 35.1402 8.73827 35.1214 8.7712C35.2201 8.6018 35.1261 8.74768 35.0932 8.79003C34.9757 8.92179 35.2295 8.73356 35.0697 8.80885C35.018 8.83238 34.863 8.87473 35.0462 8.82767C34.9851 8.84179 34.9287 8.86061 34.8677 8.87473C35.0368 8.84179 34.9522 8.86532 34.8911 8.86061C34.3132 8.82767 33.7212 8.86061 33.1432 8.86061C32.711 8.86061 32.3022 9.23706 32.321 9.6841C32.3398 10.1311 32.6828 10.5123 33.1432 10.5123Z" fill="#3E834A"/>
<path d="M35.4175 5.13378C35.4175 4.75262 35.4175 4.37617 35.4175 3.99501C35.4175 3.56209 35.0416 3.1527 34.5952 3.17152C34.1488 3.19035 33.7729 3.53386 33.7729 3.99501C33.7729 4.37617 33.7729 4.75262 33.7729 5.13378C33.7729 5.5667 34.1488 5.97609 34.5952 5.95727C35.0416 5.93374 35.4175 5.59493 35.4175 5.13378Z" fill="#3E834A"/>
<path d="M35.4175 10.8276C35.4175 10.4465 35.4175 10.07 35.4175 9.68886C35.4175 9.25594 35.0416 8.84655 34.5952 8.86537C34.1488 8.88419 33.7729 9.22771 33.7729 9.68886C33.7729 10.07 33.7729 10.4465 33.7729 10.8276C33.7729 11.2605 34.1488 11.6699 34.5952 11.6511C35.0416 11.6276 35.4175 11.2888 35.4175 10.8276Z" fill="#3E834A"/>
<path d="M39.7922 7.41132C39.7922 7.5619 39.7875 7.71249 39.7734 7.86777C39.7687 7.94306 39.7593 8.01835 39.7546 8.09364C39.7546 8.10306 39.7358 8.23011 39.7499 8.13129C39.764 8.03718 39.7405 8.18776 39.7358 8.20658C39.6841 8.51715 39.6042 8.82773 39.5055 9.12889C39.4821 9.19947 39.4586 9.26535 39.4304 9.33123C39.421 9.36417 39.3458 9.53828 39.3787 9.46769C39.4116 9.3924 39.3317 9.57122 39.3176 9.59945C39.28 9.67474 39.2424 9.75003 39.2048 9.82532C39.0639 10.0888 38.8994 10.3288 38.7303 10.5782C38.6786 10.6535 38.7444 10.5641 38.7538 10.5547C38.7303 10.5829 38.7115 10.6112 38.688 10.6394C38.6457 10.6959 38.5987 10.7476 38.5517 10.8041C38.453 10.9217 38.345 11.03 38.2369 11.1382C38.1335 11.2417 38.0255 11.3405 37.9174 11.4347C37.8798 11.4676 37.8375 11.5005 37.7999 11.5335C37.7952 11.5382 37.6965 11.6135 37.7623 11.5664C37.8281 11.5147 37.72 11.5946 37.72 11.5994C37.6778 11.6323 37.6308 11.6605 37.5885 11.6935C37.3113 11.8864 37.0199 12.0511 36.7145 12.1923C36.6769 12.2111 36.6393 12.2252 36.6018 12.244C36.6159 12.2346 36.7004 12.2064 36.6112 12.2393C36.536 12.2676 36.4608 12.3005 36.3809 12.324C36.2118 12.3852 36.0379 12.437 35.8641 12.4793C35.6996 12.5217 35.5352 12.5546 35.3707 12.5828C35.3707 12.5828 35.2297 12.6064 35.3143 12.5922C35.3942 12.5828 35.2579 12.597 35.2532 12.597C35.1546 12.6064 35.0559 12.6158 34.9525 12.6205C34.6001 12.6393 34.2571 12.6205 33.9094 12.5922C33.8107 12.5828 33.9141 12.5922 33.9329 12.597C33.8953 12.5922 33.853 12.5828 33.8154 12.5781C33.7403 12.564 33.6604 12.5499 33.5852 12.5358C33.4207 12.5028 33.2563 12.4605 33.0965 12.4134C32.9509 12.3711 32.8005 12.3193 32.6596 12.2629C32.6173 12.2487 32.4528 12.1734 32.575 12.2299C32.4951 12.1923 32.4152 12.1546 32.3353 12.117C32.0534 11.9758 31.7809 11.8111 31.5225 11.6276C31.4802 11.5994 31.4426 11.5664 31.4003 11.5382C31.4144 11.5476 31.4755 11.5994 31.405 11.5382C31.3392 11.4864 31.2781 11.4347 31.2171 11.3782C31.0808 11.2605 30.9539 11.1382 30.8271 11.0064C30.7143 10.8888 30.6109 10.7665 30.5029 10.6394C30.4042 10.5218 30.5404 10.6959 30.4512 10.5688C30.3995 10.4982 30.3525 10.4276 30.3008 10.3571C30.127 10.0983 29.9766 9.82532 29.845 9.54298C29.8262 9.50063 29.7605 9.33594 29.8074 9.46299C29.7793 9.3924 29.7511 9.32182 29.7276 9.25123C29.6665 9.08654 29.6148 8.91243 29.5678 8.74302C29.5302 8.59244 29.4973 8.44186 29.4691 8.29128C29.455 8.21599 29.4409 8.1407 29.4316 8.0607C29.4503 8.21129 29.4269 7.976 29.4222 7.92895C29.3987 7.62308 29.394 7.31721 29.4128 7.01134C29.4175 6.94547 29.4222 6.87959 29.4269 6.81371C29.4363 6.73842 29.4503 6.62548 29.4269 6.77136C29.4503 6.63019 29.4738 6.49372 29.502 6.35255C29.5584 6.07963 29.6383 5.8114 29.7323 5.55259C29.7558 5.49142 29.7793 5.43495 29.8027 5.37378C29.8356 5.28437 29.784 5.41613 29.7793 5.42554C29.7934 5.39731 29.8027 5.36907 29.8168 5.34084C29.8732 5.21379 29.9343 5.09144 30.0001 4.9738C30.1223 4.74322 30.2632 4.52206 30.4183 4.3103C30.4371 4.28677 30.5498 4.13619 30.4841 4.21619C30.4183 4.29618 30.5357 4.15031 30.5592 4.12678C30.6485 4.02326 30.7378 3.91973 30.8318 3.82562C31.0197 3.62798 31.2265 3.45387 31.4332 3.27976C31.3251 3.37388 31.405 3.29859 31.4661 3.25624C31.5178 3.21859 31.5695 3.18094 31.6211 3.14801C31.7339 3.07272 31.8467 2.99742 31.9641 2.92684C32.0722 2.86096 32.185 2.80449 32.2978 2.74332C32.3541 2.71509 32.4105 2.68685 32.4669 2.65862C32.528 2.63038 32.6877 2.5645 32.5327 2.62568C32.7911 2.52215 33.0495 2.43275 33.3221 2.36216C33.4489 2.32922 33.5758 2.30099 33.7027 2.27746C33.7684 2.26334 33.8295 2.25393 33.8953 2.24452C33.7731 2.26805 34.0128 2.2304 34.0504 2.2257C34.3652 2.19746 34.6847 2.19276 34.9995 2.21158C35.0653 2.21629 35.1311 2.22099 35.1921 2.2257C35.272 2.23511 35.3754 2.24923 35.2297 2.2257C35.366 2.24452 35.5023 2.26805 35.6385 2.29628C35.9063 2.35275 36.1695 2.42804 36.4279 2.52215C36.489 2.54098 36.5454 2.5645 36.6018 2.58803C36.6299 2.59744 36.6581 2.61156 36.6863 2.62097C36.6816 2.62097 36.5501 2.55509 36.6346 2.59744C36.7521 2.65862 36.879 2.71038 36.9964 2.77155C37.222 2.88919 37.4428 3.02566 37.6543 3.17624C37.7059 3.21388 37.7529 3.25153 37.8046 3.28447C37.8798 3.33623 37.7623 3.25153 37.7576 3.25153C37.7811 3.27035 37.8046 3.28917 37.8281 3.308C37.9315 3.3927 38.0302 3.4774 38.1288 3.57151C38.3215 3.75503 38.5047 3.94797 38.6739 4.15031C38.7256 4.21148 38.7819 4.29148 38.6974 4.17854C38.735 4.2303 38.7725 4.27736 38.8054 4.32912C38.8806 4.43735 38.9558 4.55029 39.0263 4.66322C39.1625 4.88439 39.28 5.11026 39.3881 5.34554C39.4539 5.49142 39.3458 5.2279 39.4022 5.37848C39.4257 5.43495 39.4492 5.49612 39.468 5.55259C39.5149 5.67965 39.5572 5.8114 39.5948 5.93846C39.67 6.20197 39.7264 6.4749 39.7687 6.74783C39.7828 6.84194 39.7593 6.69607 39.7593 6.68665C39.764 6.71959 39.7687 6.75253 39.7687 6.78547C39.7734 6.85135 39.7828 6.91723 39.7875 6.9784C39.7875 7.12428 39.7922 7.26545 39.7922 7.41132C39.7922 7.84424 40.1681 8.25364 40.6144 8.23481C41.0561 8.21599 41.4414 7.87248 41.4367 7.41132C41.4226 4.87968 39.9942 2.47039 37.7294 1.31751C36.5454 0.715184 35.1874 0.43755 33.8671 0.592837C32.5045 0.757535 31.2734 1.27516 30.2068 2.141C28.1159 3.83974 27.2514 6.78077 28.0172 9.35476C28.9194 12.3852 31.9078 14.5027 35.0747 14.2439C36.6957 14.1122 38.2322 13.4346 39.3975 12.2864C40.3936 11.3029 41.1031 9.98532 41.3286 8.59715C41.3944 8.20187 41.432 7.8066 41.4367 7.40662C41.4414 6.9737 41.0561 6.56431 40.6144 6.58313C40.1681 6.60666 39.7922 6.94547 39.7922 7.41132Z" fill="#3E834A"/>
<path d="M2.60602 27.4151C3.61624 26.2057 4.62176 25.0011 5.63198 23.7917C7.23893 21.8671 8.84588 19.9425 10.4528 18.0132C10.824 17.5708 11.1905 17.1285 11.5617 16.6862C11.1905 16.785 10.8146 16.8838 10.4434 16.9826C12.3934 17.6414 14.3386 18.3002 16.2886 18.959C16.5658 19.0531 16.8384 19.1472 17.1156 19.2366C17.576 19.3919 18.1916 19.1378 18.4171 18.7049C19.1407 17.3262 19.869 15.9474 20.5926 14.5686C21.7438 12.3805 22.895 10.1924 24.0414 8.00426C24.3046 7.50075 24.5677 7.00196 24.8308 6.49845C25.1127 5.96671 24.9859 5.21851 24.4173 4.92206C23.8864 4.63972 23.144 4.76677 22.8433 5.33616C22.1197 6.71491 21.3914 8.09367 20.6678 9.47242C19.5166 11.6605 18.3654 13.8487 17.2189 16.0368C16.9558 16.5403 16.6927 17.0391 16.4296 17.5426C16.8618 17.3638 17.2941 17.1897 17.7311 17.0109C15.7811 16.3521 13.8359 15.6933 11.8859 15.0345C11.6087 14.9404 11.3362 14.8463 11.059 14.7569C10.7019 14.6345 10.185 14.7569 9.94067 15.0533C8.93046 16.2627 7.92494 17.4673 6.91472 18.6767C5.30777 20.6013 3.70082 22.5259 2.09386 24.4552C1.72267 24.8975 1.35617 25.3399 0.984974 25.7822C0.599681 26.2434 0.501009 26.968 0.984974 27.4104C1.40316 27.8056 2.19724 27.9092 2.60602 27.4151Z" fill="#3E834A"/>
<path d="M19.5732 8.6677C20.9077 8.19243 22.2421 7.71246 23.5765 7.23719C23.7645 7.17131 23.9524 7.10543 24.1404 7.03484C23.6705 6.76662 23.1959 6.4984 22.7261 6.23018C23.116 7.47717 23.5013 8.72417 23.8913 9.96646C23.9477 10.1453 23.9994 10.3194 24.0558 10.4982C24.2343 11.0723 24.864 11.5005 25.4701 11.3029C26.048 11.1146 26.4662 10.5029 26.2736 9.88647C25.8836 8.63947 25.4983 7.39247 25.1083 6.15018C25.0519 5.97137 25.0002 5.79726 24.9438 5.61844C24.77 5.05847 24.131 4.59732 23.5295 4.81378C22.1951 5.28905 20.8607 5.76902 19.5262 6.24429C19.3383 6.31017 19.1504 6.37605 18.9624 6.44664C18.3986 6.64898 17.9569 7.24189 18.1589 7.86304C18.3375 8.4183 18.9624 8.88416 19.5732 8.6677Z" fill="#3E834A"/>
</svg>
