<svg width="69" height="36" viewBox="0 0 69 36" fill="none" xmlns="http://www.w3.org/2000/svg">
<path fill-rule="evenodd" clip-rule="evenodd" d="M34.7651 17.7614H34.5631C25.9877 17.817 18.9588 24.9178 18.5176 33.8688C18.5094 34.0365 18.5353 34.2041 18.5938 34.3614C18.6523 34.5187 18.7422 34.6626 18.858 34.7841C18.9737 34.9057 19.113 35.0025 19.2673 35.0686C19.4216 35.1347 19.5877 35.1688 19.7556 35.1687H49.5887C49.7553 35.1669 49.9198 35.1314 50.0723 35.0644C50.2249 34.9974 50.3623 34.9003 50.4764 34.7789C50.5905 34.6575 50.6789 34.5143 50.7364 34.3579C50.7938 34.2015 50.819 34.0352 50.8106 33.8688C50.3694 24.9178 43.3405 17.8171 34.7651 17.7614Z" fill="#6C35A8"/>
<path fill-rule="evenodd" clip-rule="evenodd" d="M34.665 1.59326C33.19 1.59326 31.7481 2.03065 30.5217 2.85012C29.2953 3.66958 28.3394 4.83432 27.775 6.19704C27.2105 7.55976 27.0628 9.05926 27.3506 10.5059C27.6383 11.9526 28.3486 13.2814 29.3916 14.3244C30.4346 15.3673 31.7634 16.0776 33.2101 16.3654C34.6568 16.6531 36.1563 16.5054 37.519 15.9409C38.8817 15.3765 40.0464 14.4206 40.8659 13.1941C41.6853 11.9677 42.1227 10.5258 42.1227 9.05085C42.1217 7.07324 41.3357 5.17688 39.9373 3.77851C38.5389 2.38014 36.6426 1.59415 34.665 1.59326Z" fill="#CD9DFF"/>
<path fill-rule="evenodd" clip-rule="evenodd" d="M53.0412 0.441895C51.8851 0.441895 50.7549 0.78472 49.7937 1.42702C48.8324 2.06932 48.0832 2.98224 47.6408 4.05035C47.1983 5.11845 47.0826 6.29376 47.3081 7.42765C47.5337 8.56155 48.0904 9.60309 48.9079 10.4206C49.7254 11.2381 50.7669 11.7948 51.9008 12.0203C53.0347 12.2459 54.21 12.1301 55.2781 11.6877C56.3462 11.2453 57.2591 10.4961 57.9014 9.5348C58.5437 8.57353 58.8866 7.44338 58.8866 6.28728C58.8857 4.73726 58.2695 3.25099 57.1735 2.15496C56.0775 1.05893 54.5912 0.442799 53.0412 0.441895Z" fill="#CD9DFF"/>
<path fill-rule="evenodd" clip-rule="evenodd" d="M43.6655 17.7044C46.0161 19.0827 48.0507 20.9395 49.6375 23.1546C51.2243 25.3697 52.3279 27.8936 52.8767 30.5626H66.8465C67.0143 30.5626 67.1805 30.5285 67.3348 30.4624C67.4891 30.3963 67.6283 30.2995 67.7441 30.178C67.8599 30.0564 67.9497 29.9126 68.0082 29.7552C68.0668 29.5979 68.0927 29.4303 68.0845 29.2626C67.6718 20.8929 61.0729 14.2606 53.0415 14.2606C49.6077 14.2659 46.2864 15.4858 43.6655 17.7044Z" fill="#6C35A8"/>
<path fill-rule="evenodd" clip-rule="evenodd" d="M15.0372 0.482056C16.1933 0.482056 17.3234 0.824882 18.2847 1.46718C19.246 2.10948 19.9952 3.0224 20.4376 4.09051C20.88 5.15861 20.9958 6.33392 20.7702 7.46781C20.5447 8.60171 19.988 9.64326 19.1705 10.4607C18.353 11.2782 17.3115 11.835 16.1776 12.0605C15.0437 12.286 13.8684 12.1703 12.8003 11.7279C11.7322 11.2854 10.8192 10.5362 10.1769 9.57496C9.53463 8.61369 9.19181 7.48354 9.19181 6.32744C9.19271 4.77742 9.80884 3.29115 10.9049 2.19512C12.0009 1.09909 13.4872 0.48296 15.0372 0.482056Z" fill="#CD9DFF"/>
<path fill-rule="evenodd" clip-rule="evenodd" d="M24.4133 17.7444C22.0628 19.1227 20.0282 20.9796 18.4413 23.1947C16.8545 25.4098 15.751 27.9336 15.2022 30.6026H1.23239C1.06452 30.6026 0.898388 30.5686 0.744085 30.5024C0.589781 30.4363 0.450521 30.3396 0.334751 30.218C0.218981 30.0964 0.129118 29.9526 0.070612 29.7953C0.0121059 29.6379 -0.0138206 29.4703 -0.00559616 29.3026C0.407057 20.933 7.00594 14.3007 15.0374 14.3007C18.4712 14.3059 21.7925 15.5258 24.4133 17.7444Z" fill="#6C35A8"/>
</svg>
