<svg width="44" height="44" viewBox="0 0 44 44" fill="none" xmlns="http://www.w3.org/2000/svg">
<path fill-rule="evenodd" clip-rule="evenodd" d="M5.14801 0.550415C2.46746 0.550415 0.294434 2.67913 0.294434 5.30494V38.5866C0.294434 41.2124 2.46746 43.3411 5.14801 43.3411H39.123C41.8036 43.3411 43.9766 41.2124 43.9766 38.5866V5.30494C43.9766 2.67913 41.8036 0.550415 39.123 0.550415H5.14801ZM12.4284 24.323C12.4284 23.01 11.3419 21.9458 10.0016 21.9458C8.66131 21.9458 7.5748 23.01 7.5748 24.323V33.8321C7.5748 35.1451 8.66131 36.2093 10.0016 36.2093C11.3419 36.2093 12.4284 35.1451 12.4284 33.8321V24.323ZM22.1355 14.814C23.4758 14.814 24.5623 15.8783 24.5623 17.1912V33.8321C24.5623 35.1451 23.4758 36.2093 22.1355 36.2093C20.7952 36.2093 19.7087 35.1451 19.7087 33.8321V17.1912C19.7087 15.8783 20.7952 14.814 22.1355 14.814ZM36.6962 10.0595C36.6962 8.74648 35.6097 7.6822 34.2695 7.6822C32.9292 7.6822 31.8427 8.74648 31.8427 10.0595V33.8321C31.8427 35.1451 32.9292 36.2093 34.2695 36.2093C35.6097 36.2093 36.6962 35.1451 36.6962 33.8321V10.0595Z" fill="#FA5A7D"/>
</svg>
