<svg width="24" height="24" viewBox="0 0 24 24" fill="none" xmlns="http://www.w3.org/2000/svg">
<path d="M11.8879 1C5.88448 1 1 5.88448 1 11.8879C1 14.5721 1.97821 17.0305 3.59438 18.9305C3.61507 18.9624 3.63881 18.9926 3.66653 19.0203C3.6728 19.0266 3.67982 19.0306 3.68609 19.0364C5.68372 21.3253 8.61869 22.7756 11.888 22.7756C15.1572 22.7756 18.0921 21.3253 20.0899 19.0364C20.0961 19.0308 20.1035 19.0264 20.1094 19.0203C20.1371 18.9926 20.1611 18.962 20.1816 18.9305C21.7977 17.0303 22.7759 14.5718 22.7759 11.8879C22.7759 5.88448 17.8913 1 11.8879 1ZM11.8879 21.687C9.10515 21.687 6.59171 20.5193 4.80638 18.6504L5.55221 17.9046C6.27275 17.1842 7.23045 16.7874 8.24875 16.7874H15.5271C16.5454 16.7874 17.5031 17.1842 18.2235 17.9044L18.9693 18.6502C17.1841 20.5191 14.6707 21.687 11.8879 21.687ZM19.6795 17.8209L18.9933 17.1347C18.0673 16.2087 16.8364 15.6985 15.5271 15.6985H8.24875C6.93939 15.6985 5.70867 16.2087 4.78267 17.1347L4.09648 17.8209C2.83821 16.1728 2.08879 14.1165 2.08879 11.8879C2.08879 6.48482 6.48448 2.08884 11.8879 2.08884C17.291 2.08884 21.687 6.48453 21.687 11.8879C21.687 14.1166 20.9376 16.1729 19.6795 17.8209ZM11.8879 5.8996C9.48662 5.8996 7.53263 7.85334 7.53263 10.2548C7.53263 12.6561 9.48638 14.6101 11.8879 14.6101C14.2891 14.6101 16.2431 12.6564 16.2431 10.2548C16.2431 7.85334 14.2892 5.8996 11.8879 5.8996ZM11.8879 13.5211C10.0868 13.5211 8.62157 12.0559 8.62157 10.2548C8.62157 8.45368 10.0868 6.98848 11.8879 6.98848C13.689 6.98848 15.1542 8.45373 15.1542 10.2548C15.1542 12.0559 13.689 13.5211 11.8879 13.5211Z" fill="#24B8F1" stroke="#24B8F1"/>
</svg>
