<svg width="32" height="28" viewBox="0 0 32 28" fill="none" xmlns="http://www.w3.org/2000/svg">
<path d="M20.9935 15.2938L15.8356 12.8637L26.1511 8.00327L31.3082 10.4333L26.1511 12.8634L20.9935 15.2938ZM26.1511 3.14246L20.9935 0.712402L15.8356 3.14246L26.1511 8.00327L31.3082 5.57322L26.1511 3.14246ZM10.6781 10.4333L5.52057 8.00327L0.363037 10.4333L10.6781 15.2938L15.8356 12.8637L10.6781 10.4333ZM10.6781 5.57287L15.8356 3.14246L10.6781 0.712402L0.363037 5.57322L5.52057 8.00327L10.6781 5.57287ZM26.1511 14.2918L21.5347 16.4668L20.9935 16.7218L20.4523 16.4668L15.8356 14.2918L11.2196 16.4668L10.6781 16.7218L10.1369 16.4668L5.52092 14.2918V21.9144L15.8356 27.3597L26.1511 21.9144V14.2918Z" fill="#3E834A"/>
</svg>
