<svg width="149" height="42" viewBox="0 0 149 42" fill="none" xmlns="http://www.w3.org/2000/svg">
<g filter="url(#filter0_d_1672_958)">
<mask id="path-1-inside-1_1672_958" fill="white">
<path fill-rule="evenodd" clip-rule="evenodd" d="M136.357 1C136.357 1 136.357 1.00018 136.357 1.0004V1.00055C136.357 1.00064 136.357 1.00074 136.357 1.00082L146.444 18.6533C146.921 19.4878 146.921 20.5122 146.444 21.3467L136.357 38.9992C136.357 38.9993 136.357 38.9994 136.357 38.9995V38.9996C136.357 38.9998 136.357 39 136.357 39H4.71429C3.21523 39 2 37.7848 2 36.2857V3.71429C2 2.21523 3.21521 1 4.71427 1H136.357Z"/>
</mask>
<path fill-rule="evenodd" clip-rule="evenodd" d="M136.357 1C136.357 1 136.357 1.00018 136.357 1.0004V1.00055C136.357 1.00064 136.357 1.00074 136.357 1.00082L146.444 18.6533C146.921 19.4878 146.921 20.5122 146.444 21.3467L136.357 38.9992C136.357 38.9993 136.357 38.9994 136.357 38.9995V38.9996C136.357 38.9998 136.357 39 136.357 39H4.71429C3.21523 39 2 37.7848 2 36.2857V3.71429C2 2.21523 3.21521 1 4.71427 1H136.357Z" fill="white"/>
<path d="M146.444 18.6533L145.855 18.99L145.855 18.99L146.444 18.6533ZM146.444 21.3467L145.855 21.01H145.855L146.444 21.3467ZM136.357 1.00082L135.768 1.33749L136.357 1.00082ZM136.357 38.9992L135.768 38.6625L136.357 38.9992ZM137.036 1.00055V1.0004H135.679V1.00055H137.036ZM135.768 1.33749L145.855 18.99L147.034 18.3167L136.946 0.664155L135.768 1.33749ZM145.855 18.99C146.213 19.6159 146.213 20.3841 145.855 21.01L147.034 21.6833C147.63 20.6403 147.63 19.3597 147.034 18.3167L145.855 18.99ZM145.855 21.01L135.768 38.6625L136.946 39.3358L147.034 21.6833L145.855 21.01ZM137.036 38.9996V38.9995H135.679V38.9996H137.036ZM4.71429 39.6786H136.357V38.3214H4.71429V39.6786ZM1.32143 3.71429V36.2857H2.67857V3.71429H1.32143ZM136.357 0.321429H4.71427V1.67857H136.357V0.321429ZM2.67857 3.71429C2.67857 2.58999 3.58998 1.67857 4.71427 1.67857V0.321429C2.84044 0.321429 1.32143 1.84047 1.32143 3.71429H2.67857ZM4.71429 38.3214C3.58999 38.3214 2.67857 37.41 2.67857 36.2857H1.32143C1.32143 38.1595 2.84046 39.6786 4.71429 39.6786V38.3214ZM135.679 38.9996C135.679 38.6251 135.982 38.3214 136.357 38.3214V39.6786C136.732 39.6786 137.036 39.3746 137.036 38.9996H135.679ZM135.679 1.00055C135.679 1.11873 135.709 1.23487 135.768 1.33749L136.946 0.664155C137.005 0.766603 137.036 0.882554 137.036 1.00055H135.679ZM135.768 38.6625C135.709 38.7654 135.679 38.8816 135.679 38.9995H137.036C137.036 39.1171 137.005 39.2331 136.946 39.3358L135.768 38.6625ZM136.357 1.67857C135.982 1.67857 135.679 1.37494 135.679 1.0004H137.036C137.036 0.625414 136.732 0.321429 136.357 0.321429V1.67857Z" fill="#F4461F" mask="url(#path-1-inside-1_1672_958)"/>
</g>
<defs>
<filter id="filter0_d_1672_958" x="0.642857" y="0.321429" width="147.516" height="40.7143" filterUnits="userSpaceOnUse" color-interpolation-filters="sRGB">
<feFlood flood-opacity="0" result="BackgroundImageFix"/>
<feColorMatrix in="SourceAlpha" type="matrix" values="0 0 0 0 0 0 0 0 0 0 0 0 0 0 0 0 0 0 127 0" result="hardAlpha"/>
<feOffset dy="0.678571"/>
<feGaussianBlur stdDeviation="0.678571"/>
<feColorMatrix type="matrix" values="0 0 0 0 0.215686 0 0 0 0 0.254902 0 0 0 0 0.317647 0 0 0 0.08 0"/>
<feBlend mode="normal" in2="BackgroundImageFix" result="effect1_dropShadow_1672_958"/>
<feBlend mode="normal" in="SourceGraphic" in2="effect1_dropShadow_1672_958" result="shape"/>
</filter>
</defs>
</svg>
