<svg width="146" height="38" viewBox="0 0 146 38" fill="none" xmlns="http://www.w3.org/2000/svg">
<mask id="path-1-inside-1_1672_976" fill="white">
<path fill-rule="evenodd" clip-rule="evenodd" d="M0.695312 0H135.052L145.5 19L135.052 38H0.695312L10.7829 20.3467C11.2598 19.5122 11.2598 18.4878 10.7829 17.6533L0.695312 0Z"/>
</mask>
<path d="M135.052 0L135.929 -0.481832L135.644 -1H135.052V0ZM0.695312 0V-1H-1.02787L-0.172931 0.496139L0.695312 0ZM145.5 19L146.376 19.4818L146.641 19L146.376 18.5182L145.5 19ZM135.052 38V39H135.644L135.929 38.4818L135.052 38ZM0.695312 38L-0.172931 37.5039L-1.02787 39H0.695312V38ZM10.7829 20.3467L11.6512 20.8428V20.8428L10.7829 20.3467ZM10.7829 17.6533L9.91469 18.1495L10.7829 17.6533ZM135.052 -1H0.695312V1H135.052V-1ZM146.376 18.5182L135.929 -0.481832L134.176 0.481832L144.624 19.4818L146.376 18.5182ZM135.929 38.4818L146.376 19.4818L144.624 18.5182L134.176 37.5182L135.929 38.4818ZM0.695312 39H135.052V37H0.695312V39ZM9.91469 19.8505L-0.172931 37.5039L1.56356 38.4961L11.6512 20.8428L9.91469 19.8505ZM9.91469 18.1495C10.2159 18.6765 10.2159 19.3235 9.91469 19.8505L11.6512 20.8428C12.3037 19.7009 12.3037 18.2991 11.6512 17.1572L9.91469 18.1495ZM-0.172931 0.496139L9.91469 18.1495L11.6512 17.1572L1.56356 -0.496139L-0.172931 0.496139Z" fill="#F4461F" mask="url(#path-1-inside-1_1672_976)"/>
</svg>
