<svg width="30" height="23" viewBox="0 0 30 23" fill="none" xmlns="http://www.w3.org/2000/svg">
<path d="M12.1407 4.9316L12.0392 7.00215C12.0309 7.17365 12.1087 7.33738 12.2456 7.43833C12.3829 7.53896 12.5611 7.56323 12.7199 7.50208L14.636 6.76497L16.5522 7.50208C16.6101 7.5244 16.6706 7.5354 16.7307 7.5354C16.8354 7.5354 16.9391 7.5024 17.0261 7.43833C17.1634 7.33738 17.2411 7.17332 17.2325 7.00215L17.1311 4.9316L18.4165 3.31664C18.5227 3.183 18.5554 3.00407 18.5029 2.84098C18.4504 2.6779 18.3202 2.55236 18.1563 2.5077L16.1778 1.96539L15.0562 0.230061C14.9634 0.0863942 14.8053 0 14.6354 0C14.4655 0 14.3074 0.0867178 14.2146 0.230061L13.093 1.96539L11.1144 2.5077C10.9506 2.55268 10.8203 2.6779 10.7679 2.84098C10.7154 3.00407 10.748 3.183 10.8543 3.31664L12.1407 4.9316ZM13.5413 2.89534C13.6603 2.86266 13.7631 2.78727 13.8306 2.68276L14.636 1.43667L15.4415 2.68308C15.509 2.78727 15.6117 2.86299 15.7307 2.89567L17.1519 3.28525L16.2287 4.44494C16.1515 4.54202 16.1122 4.66433 16.1183 4.78858L16.1909 6.27573L14.8146 5.74636C14.6994 5.70203 14.5723 5.70203 14.4571 5.74636L13.0808 6.27573L13.1535 4.78858C13.1595 4.66433 13.1202 4.54202 13.0431 4.44494L12.1199 3.28525L13.5413 2.89534ZM4.29618 4.79861L4.20978 6.56695C4.20146 6.73844 4.27922 6.90217 4.41618 7.00312C4.55346 7.10408 4.7317 7.12802 4.89042 7.06687L6.5269 6.43719L8.16338 7.06687C8.2213 7.08919 8.28178 7.1002 8.34194 7.1002C8.44658 7.1002 8.55026 7.06719 8.6373 7.00312C8.77458 6.90217 8.85234 6.73812 8.8437 6.56695L8.7573 4.79861L9.85522 3.41921C9.96146 3.28558 9.9941 3.10664 9.94162 2.94356C9.88914 2.78048 9.7589 2.65493 9.59506 2.61028L7.90514 2.14692L6.94706 0.664946C6.85426 0.521279 6.69618 0.434884 6.52626 0.434884C6.35666 0.434884 6.19826 0.521602 6.10546 0.664946L5.14738 2.14692L3.45746 2.61028C3.29362 2.65525 3.16338 2.78048 3.1109 2.94356C3.05842 3.10664 3.09106 3.28558 3.1973 3.41921L4.29618 4.79861ZM5.5957 3.07719C5.71474 3.04451 5.81746 2.96912 5.88498 2.8646L6.5269 1.87155L7.16882 2.8646C7.23634 2.9688 7.33906 3.04451 7.4581 3.07719L8.59058 3.3875L7.8549 4.31163C7.77778 4.4087 7.73842 4.53101 7.7445 4.65527L7.80242 5.8402L6.70578 5.41825C6.64818 5.39625 6.5877 5.38493 6.52722 5.38493C6.46674 5.38493 6.40594 5.39593 6.34834 5.41825L5.2517 5.8402L5.30962 4.65527C5.3157 4.53101 5.27634 4.4087 5.19922 4.31163L4.46322 3.38783L5.5957 3.07719ZM20.5144 4.79861L20.428 6.56695C20.4197 6.73844 20.4975 6.90217 20.6347 7.00312C20.7218 7.06719 20.8255 7.1002 20.9301 7.1002C20.9903 7.1002 21.0507 7.08919 21.1087 7.06687L22.7451 6.43719L24.3816 7.06687C24.5403 7.12802 24.7186 7.10376 24.8559 7.00312C24.9931 6.90217 25.0709 6.73812 25.0626 6.56695L24.9762 4.79861L26.0741 3.41921C26.1803 3.28558 26.213 3.10664 26.1605 2.94356C26.108 2.78048 25.9778 2.65493 25.8139 2.61028L24.124 2.14692L23.1659 0.664946C23.0731 0.521279 22.9151 0.434884 22.7451 0.434884C22.5755 0.434884 22.4171 0.521602 22.3243 0.664946L21.3663 2.14692L19.6763 2.61028C19.5125 2.65525 19.3823 2.78048 19.3298 2.94356C19.2773 3.10664 19.3099 3.28558 19.4162 3.41921L20.5144 4.79861ZM21.8139 3.07719C21.933 3.04451 22.0357 2.96912 22.1032 2.8646L22.7451 1.87155L23.3871 2.8646C23.4546 2.9688 23.5573 3.04451 23.6763 3.07719L24.8088 3.3875L24.0731 4.31163C23.996 4.4087 23.9567 4.53101 23.9627 4.65527L24.0207 5.8402L22.924 5.41825C22.8664 5.39625 22.8059 5.38493 22.7451 5.38493C22.6847 5.38493 22.6239 5.39593 22.5663 5.41825L21.4696 5.8402L21.5275 4.65527C21.5336 4.53101 21.4943 4.4087 21.4171 4.31163L20.6815 3.3875L21.8139 3.07719ZM24.7947 15.0672C25.6383 14.4327 26.1861 13.417 26.1861 12.2745C26.1861 10.356 24.6427 8.7954 22.7455 8.7954C20.8482 8.7954 19.3048 10.356 19.3048 12.2745C19.3048 13.4164 19.8517 14.4314 20.6946 15.0663C19.5928 15.4316 18.604 16.0927 17.8232 16.9996C17.4635 16.7968 17.0831 16.6275 16.6859 16.4955C17.5295 15.861 18.0773 14.8453 18.0773 13.7027C18.0773 11.7843 16.5339 10.2237 14.6367 10.2237C12.7394 10.2237 11.196 11.7843 11.196 13.7027C11.196 14.8453 11.7435 15.8607 12.5874 16.4955C12.1899 16.6275 11.8095 16.7968 11.4501 16.9996C10.6693 16.0927 9.6805 15.4316 8.57874 15.0663C9.42162 14.4314 9.9685 13.4164 9.9685 12.2745C9.9685 10.356 8.42514 8.7954 6.52786 8.7954C4.63058 8.7954 3.08722 10.356 3.08722 12.2745C3.08722 13.417 3.63474 14.4324 4.47858 15.0672C1.96786 15.9011 0.126897 18.2282 0.000496892 21.0404C-0.00558311 21.1789 0.0443369 21.3142 0.139057 21.4145C0.233777 21.5148 0.365297 21.5717 0.502257 21.5717H8.2101C8.1573 21.8643 8.12306 22.1636 8.1093 22.4687C8.10322 22.6072 8.15314 22.7424 8.24786 22.8427C8.34258 22.9431 8.4741 23 8.61106 23H20.6616C20.7989 23 20.9301 22.9434 21.0248 22.8427C21.1195 22.7424 21.1698 22.6072 21.1634 22.4687C21.1496 22.1636 21.1154 21.8643 21.0626 21.5717H28.7704C28.9077 21.5717 29.0389 21.5151 29.1336 21.4145C29.2283 21.3142 29.2786 21.1789 29.2722 21.0404C29.1464 18.2282 27.3055 15.9011 24.7947 15.0672ZM20.3096 12.2745C20.3096 10.9164 21.4021 9.81175 22.7451 9.81175C24.0882 9.81175 25.1807 10.9164 25.1807 12.2745C25.1807 13.6325 24.0882 14.7372 22.7451 14.7372C21.4021 14.7372 20.3096 13.6325 20.3096 12.2745ZM12.2005 13.7027C12.2005 12.3447 13.293 11.24 14.636 11.24C15.9791 11.24 17.0715 12.3447 17.0715 13.7027C17.0715 15.0608 15.9791 16.1655 14.636 16.1655C13.293 16.1658 12.2005 15.0608 12.2005 13.7027ZM4.09138 12.2745C4.09138 10.9164 5.18386 9.81175 6.5269 9.81175C7.86994 9.81175 8.96242 10.9164 8.96242 12.2745C8.96242 13.6325 7.86994 14.7372 6.5269 14.7372C5.18386 14.7372 4.09138 13.6325 4.09138 12.2745ZM8.47666 20.5554H1.05202C1.43122 17.8235 3.74194 15.7539 6.5269 15.7539C8.09874 15.7539 9.55762 16.4091 10.6037 17.5678C9.64082 18.3302 8.8949 19.3617 8.47666 20.5554ZM9.16114 21.9837C9.54034 19.2517 11.8511 17.1821 14.636 17.1821C17.421 17.1821 19.7317 19.2517 20.1109 21.9837H9.16114ZM20.7954 20.5554C20.3775 19.3617 19.6315 18.3305 18.6683 17.5678C19.7144 16.4091 21.1733 15.7539 22.7451 15.7539C25.5301 15.7539 27.8408 17.8235 28.22 20.5554H20.7954Z" fill="black"/>
</svg>
