<svg width="26" height="26" viewBox="0 0 26 26" fill="none" xmlns="http://www.w3.org/2000/svg">
<path fill-rule="evenodd" clip-rule="evenodd" d="M4.31931 1.01754C4.30925 1.0276 4.13382 1.05814 3.9295 1.08548C2.5412 1.27085 1.45783 2.28053 1.11099 3.71243L1.00031 4.16886V13.0075C1.00019 22.8216 0.980541 22.1147 1.27518 22.8586C1.62391 23.7393 2.53197 24.5936 3.36118 24.8215C4.02764 25.0046 3.65191 24.9976 13.0018 24.9988L21.9209 25L22.3488 24.891C23.4723 24.6048 24.2963 23.8941 24.7186 22.8471C24.803 22.6377 24.8721 22.4106 24.8721 22.3424C24.8721 22.2742 24.9017 22.1312 24.9379 22.0248C25.0317 21.7494 25.0141 4.34854 24.9197 3.86288C24.7189 2.83059 24.0195 1.86778 23.1669 1.44947C22.1799 0.965222 23.002 1.00132 12.9543 1.00026C8.21516 0.999668 4.32937 1.00748 4.31931 1.01754ZM6.95281 6.31748C7.52065 6.61588 7.80878 7.06616 7.85127 7.72156C7.99143 9.88592 4.96718 10.3575 4.42857 8.25516C4.06741 6.84552 5.64831 5.63201 6.95281 6.31748ZM20.2527 6.62618C21.3934 7.05704 21.4662 8.55404 20.371 9.06078C20.0584 9.2053 11.0611 9.2059 10.75 9.06137C9.76279 8.60246 9.74847 7.05491 10.7283 6.69673C11.2413 6.50923 11.0942 6.51444 15.6469 6.52225L19.9972 6.52971L20.2527 6.62618ZM6.70386 11.3635C8.26026 11.9105 8.25102 14.1907 6.69049 14.6643C5.25791 15.0991 4.02101 13.8152 4.49759 12.3881C4.59927 12.0835 4.93782 11.6516 5.17528 11.5235C5.65293 11.266 6.24871 11.2036 6.70386 11.3635ZM20.478 11.8804C21.4848 12.4585 21.3466 13.8733 20.2475 14.2428C19.9747 14.3346 19.9503 14.335 15.4819 14.3233L10.9906 14.3116L10.7864 14.2163C9.79275 13.7524 9.70609 12.4163 10.6352 11.8834L10.8594 11.7548H15.5594H20.2595L20.478 11.8804ZM6.90569 16.5959C8.06459 17.1243 8.21078 18.9296 7.14884 19.5973C5.44435 20.6688 3.59936 18.7916 4.71551 17.1215C4.8771 16.8797 5.25057 16.5947 5.48164 16.5368C5.55385 16.5187 5.66204 16.4887 5.72218 16.4702C5.97112 16.3933 6.61046 16.4612 6.90569 16.5959ZM20.3061 16.9539C21.3608 17.3247 21.4432 18.7934 20.4394 19.3304L20.2595 19.4266H15.5594H10.8594L10.5679 19.2339C9.64276 18.6224 9.85584 17.2364 10.925 16.91C11.2083 16.8235 20.0529 16.8649 20.3061 16.9539Z" stroke="black" stroke-width="1.3"/>
</svg>
