<svg width="32" height="19" viewBox="0 0 32 19" fill="none" xmlns="http://www.w3.org/2000/svg">
<path d="M13.0373 0.692504C12.9018 0.678511 12.7625 0.662952 12.6823 0.652612C12.6781 0.652484 12.6699 0.652289 12.6567 0.652329C12.6274 0.652418 12.5874 0.653576 12.5385 0.656132C12.4409 0.661241 12.3237 0.671106 12.2138 0.684281L13.0373 0.692504ZM13.0373 0.692504C12.9402 0.769118 12.8318 0.854529 12.7107 0.949848L12.6103 1.02896C12.6103 1.02897 12.6103 1.02898 12.6103 1.02899C12.4997 1.11609 12.0817 1.44818 11.6818 1.76673L11.6817 1.76681C11.2764 2.08974 10.8945 2.38954 10.8258 2.44L10.8256 2.44014C9.97197 3.06749 9.34633 3.63727 8.9429 4.27929C8.52466 4.94487 8.37718 5.63532 8.3771 6.43855L13.0373 0.692504ZM22.3402 11.8414C22.2935 11.7946 21.9375 11.4699 21.5487 11.12L20.7555 10.3931M22.3402 11.8414L21.8799 12.3003L21.8799 12.3002C21.8789 12.2994 21.8592 12.2806 21.8106 12.2357C21.766 12.1945 21.7061 12.1397 21.6349 12.0747C21.4926 11.945 21.3074 11.7773 21.1139 11.6031L21.1138 11.603C20.7416 11.2679 20.3596 10.9192 20.2864 10.843M22.3402 11.8414L21.8799 12.3003C21.9444 12.365 22.2575 12.647 22.5586 12.9145L22.5587 12.9145C22.9992 13.3059 23.3364 13.6246 23.5758 13.8734C23.6955 13.9978 23.7855 14.0993 23.8497 14.1795C23.8816 14.2193 23.9047 14.2509 23.9209 14.275C23.9377 14.2998 23.9432 14.311 23.9428 14.3102L23.9428 14.3102M22.3402 11.8414L23.9428 14.3102M20.2864 10.843C20.2869 10.8436 20.2842 10.8407 20.2765 10.8331L20.2484 10.806C20.2251 10.7838 20.1954 10.7558 20.1609 10.7237C20.092 10.6597 20.0078 10.5827 19.9255 10.5089M20.2864 10.843C20.2859 10.8425 20.2855 10.842 20.285 10.8416L20.7555 10.3931M20.2864 10.843L20.7555 10.3931M19.9255 10.5089C19.9256 10.5089 19.9257 10.509 19.9258 10.5091L20.3597 10.0251M19.9255 10.5089L20.3597 10.0251M19.9255 10.5089C19.7531 10.3543 19.3327 9.97262 18.9906 9.6604C18.6487 9.3483 18.0812 8.83069 17.7296 8.51012M20.3597 10.0251C20.5297 10.1777 20.7078 10.3433 20.7555 10.3931M20.3597 10.0251C20.1897 9.87271 19.7709 9.4925 19.4288 9.18031C19.0868 8.86812 18.5192 8.35039 18.1674 8.02972M18.1674 8.02972L17.7296 8.51012M18.1674 8.02972C17.7286 7.6298 17.5446 7.40818 17.3406 7.38798C17.0984 7.36401 16.8282 7.62392 16.0702 8.20644M18.1674 8.02972L17.7295 8.5101C17.7295 8.5101 17.7296 8.51011 17.7296 8.51012M17.7296 8.51012C17.6055 8.39704 17.5142 8.31072 17.4408 8.2413C17.3783 8.18214 17.3287 8.13525 17.2829 8.09454M16.0702 8.20644L16.4663 8.72181M16.0702 8.20644L16.4663 8.72181M16.0702 8.20644L8.3771 6.43857M17.2829 8.09454C17.3622 8.04004 17.3941 8.02568 17.3938 8.02485C17.3935 8.02417 17.372 8.03239 17.3372 8.03533C17.2372 8.04375 17.1727 8.00557 17.1725 8.00539C17.1724 8.00531 17.1872 8.01397 17.2199 8.04073C17.2407 8.05773 17.2614 8.07546 17.2829 8.09454ZM17.2829 8.09454C17.2679 8.10483 17.2512 8.11656 17.2328 8.12989C17.1289 8.20496 17.0123 8.29633 16.8595 8.41605C16.7499 8.50191 16.6218 8.60236 16.4663 8.72181M16.4663 8.72181C15.0886 9.78078 14.6123 10.1232 14.1219 10.3116L14.1218 10.3117C12.5216 10.9263 10.7902 10.5705 9.5851 9.36641M10.0445 8.9066C11.0649 9.92611 12.5239 10.2291 13.8887 9.70491L9.0271 6.43864M10.0445 8.9066C9.29855 8.16138 9.02695 7.50248 9.0271 6.43864M10.0445 8.9066L9.5851 9.36641M10.0445 8.9066L9.58514 9.36645C9.58513 9.36644 9.58512 9.36642 9.5851 9.36641M9.0271 6.43864L8.3771 6.43857M9.0271 6.43864L8.3771 6.43857M8.3771 6.43857C8.37702 7.02638 8.45204 7.54732 8.65508 8.03984C8.85827 8.53273 9.17158 8.95331 9.5851 9.36641M10.8623 1.07551L10.8621 1.07563C10.7891 1.10995 10.5173 1.27228 10.0983 1.53746C9.69947 1.78983 9.20903 2.10829 8.72978 2.42497C8.25033 2.74179 7.78533 3.05467 7.43705 3.29592C7.29156 3.39671 7.16929 3.48302 7.07598 3.5509C7.07295 3.61325 7.06999 3.68724 7.06716 3.77273C7.057 4.07973 7.0492 4.51041 7.04372 5.02618C7.03276 6.05643 7.03117 7.41141 7.03746 8.76283C7.04376 10.1143 7.05793 11.4589 7.07838 12.4683C7.08769 12.9278 7.09823 13.3143 7.10976 13.5994C7.14497 13.6 7.18092 13.6004 7.21717 13.6004H7.81753H8.0728L8.25985 13.7741L8.66673 14.152L8.66683 14.152C8.88464 14.3544 9.26566 14.6958 9.50915 14.9068L9.50932 14.9069C9.76208 15.1261 10.1242 15.4496 10.3177 15.6296C10.4987 15.7979 10.7709 16.0408 10.9169 16.1644L10.9171 16.1646C11.0806 16.3032 11.4535 16.6329 11.7476 16.899L12.6933 17.7539C13.2402 18.2481 13.818 18.4042 14.3018 18.3339C14.7811 18.2642 15.2547 17.9603 15.5829 17.3586L15.5829 17.3585C15.5869 17.3512 15.5912 17.3432 15.5959 17.3345C15.6379 17.2569 15.7082 17.1267 15.7896 17.028C15.8433 16.963 15.9338 16.8696 16.0707 16.8036C16.2209 16.7311 16.3788 16.7145 16.5241 16.737C16.7549 16.7726 16.9392 16.9085 17.0267 16.9733C17.1317 17.0511 17.26 17.1578 17.4029 17.2766C17.4137 17.2856 17.4245 17.2946 17.4354 17.3037L17.4355 17.3038C17.5846 17.4277 17.7424 17.5515 17.8748 17.6497C17.941 17.6989 17.9979 17.7395 18.0422 17.7694C18.0782 17.7938 18.0956 17.8042 18.0985 17.806C18.0998 17.8069 18.0984 17.8061 18.0945 17.8042L17.8048 18.3861M10.8623 1.07551L21.6518 16.6161C21.6445 16.6129 21.6364 16.6093 21.6277 16.6055C21.5671 16.5787 21.4752 16.5382 21.3939 16.5131C21.2853 16.4796 21.0709 16.4313 20.8316 16.5329C20.6253 16.6205 20.5075 16.7785 20.4597 16.8443C20.4123 16.9095 20.3604 16.9931 20.3142 17.0675C20.3073 17.0786 20.3006 17.0894 20.294 17.1L20.2939 17.1C19.8062 17.8827 18.8104 18.1605 18.0945 17.8042L17.8048 18.3861M10.8623 1.07551C11.2998 0.86949 11.7477 0.740351 12.2137 0.6843L10.8623 1.07551ZM17.8048 18.3861C17.6891 18.3284 17.3358 18.0663 17.0199 17.8035L17.8048 18.3861ZM23.9428 14.3102C24.6466 15.7595 23.2038 17.2936 21.6519 16.6161L23.9428 14.3102ZM18.9458 0.662242L18.9451 0.662395C18.7849 0.697226 18.549 0.727121 18.3886 0.729663L18.9458 0.662242ZM18.9458 0.662242C18.9458 0.662244 18.9489 0.661608 18.9555 0.660608C18.9628 0.65951 18.9725 0.658238 18.9848 0.656959C19.0095 0.65437 19.0397 0.652241 19.0731 0.651044C19.1431 0.64853 19.2063 0.650826 19.2445 0.655033L19.2447 0.655048C20.0215 0.740456 20.341 0.787717 20.7204 0.948718C21.1331 1.12382 21.6241 1.43675 22.6874 2.1343L22.6875 2.13432C22.8901 2.26724 23.0817 2.39162 23.2273 2.48512C23.3 2.53173 23.3625 2.57152 23.4098 2.60114C23.4117 2.60228 23.4138 2.60363 23.4163 2.60517C23.4388 2.61932 23.4861 2.64907 23.5296 2.67224C23.5348 2.6753 23.544 2.68079 23.5578 2.68922C23.5854 2.70612 23.6242 2.73023 23.6718 2.76029C23.7666 2.82015 23.8908 2.8998 24.0208 2.98444C24.2872 3.15785 24.6781 3.40854 24.8917 3.54272L24.9691 3.59132V7.78585C24.9691 9.10146 24.964 10.2222 24.9552 11.0242C24.7183 10.8111 24.4516 10.5668 24.1687 10.3028C23.9784 10.1253 23.6816 9.8552 23.506 9.69969C23.3419 9.55445 23.0039 9.24365 22.7579 9.01167L22.7578 9.01154M18.9458 0.662242L22.7578 9.01154M16.059 1.97529L16.0588 1.97544C15.7703 2.21261 15.1803 2.69478 14.7469 3.04747L14.7468 3.04755C14.3143 3.39942 13.7062 3.89532 13.3961 4.14928L13.3958 4.14949C13.084 4.40454 12.5744 4.81936 12.2626 5.07181L12.2626 5.07182C11.6947 5.53178 11.4425 5.81939 11.3351 6.03816C11.2541 6.20316 11.2327 6.37242 11.3332 6.7058L10.7109 6.89347L11.3332 6.7058C11.4408 7.06245 11.6012 7.27915 11.7826 7.41171C11.9651 7.54513 12.2281 7.63655 12.6164 7.63632H12.6166C12.9091 7.6362 13.0289 7.61265 13.2112 7.51487C13.4516 7.38586 13.781 7.13302 14.4386 6.58615C14.4387 6.58608 14.4387 6.58601 14.4388 6.58594L14.8545 7.08569L16.059 1.97529ZM16.059 1.97529C16.5596 1.56348 17.0364 1.24619 17.453 1.0337M16.059 1.97529L17.453 1.0337M22.7578 9.01154C22.505 8.77334 22.1425 8.44244 21.9478 8.27262C21.7687 8.11646 21.4313 7.80977 21.2023 7.59481L22.7578 9.01154ZM31.1943 14.8265L31.1943 14.8265C31.249 14.7409 31.2533 14.731 31.2651 14.6832C31.2859 14.5988 31.3092 14.432 31.3249 14.0505C31.3559 13.2958 31.3526 11.887 31.3443 9.04438L31.3431 8.6111C31.3357 6.04238 31.3321 4.78759 31.3 4.14947C31.2955 4.05972 31.2905 3.98801 31.2856 3.93115C31.1963 3.92511 31.0903 3.91906 30.9703 3.91314C30.5823 3.89397 30.071 3.87724 29.5543 3.86571C29.0377 3.85419 28.5209 3.84799 28.122 3.8496C28.0633 3.84984 28.0077 3.85025 27.9553 3.85082C27.9414 4.14578 27.9295 4.5474 27.9198 5.02684C27.8985 6.07996 27.8881 7.4862 27.8887 8.90727C27.8893 10.3282 27.9008 11.7597 27.923 12.8632C27.9341 13.4156 27.9478 13.8816 27.964 14.2216C27.9721 14.3923 27.9805 14.5252 27.9889 14.6188C27.992 14.6527 27.9947 14.6781 27.997 14.6962C28.0896 14.9238 28.1838 15.0079 28.3265 15.0702C28.5406 15.1637 28.9156 15.2241 29.6388 15.2236L31.1943 14.8265ZM31.1943 14.8265C31.1023 14.9706 31.0112 15.0473 30.8327 15.1065M31.1943 14.8265L30.8327 15.1065M17.453 1.0337C17.8813 0.815235 18.1969 0.732768 18.3884 0.729666L17.453 1.0337ZM30.8327 15.1065C30.6117 15.1797 30.259 15.2232 29.6389 15.2236L30.8327 15.1065ZM23.5566 2.68599C23.5478 2.68181 23.5402 2.67789 23.5346 2.67493C23.5422 2.67888 23.5496 2.68261 23.5566 2.68599ZM23.5279 2.67126C23.5258 2.67013 23.5247 2.66949 23.5247 2.66948C23.5247 2.66947 23.5257 2.67002 23.5279 2.67126ZM2.49853 3.86751L2.49862 3.86751C3.06917 3.85938 3.59236 3.85058 3.97584 3.84292C4.01214 3.8422 4.04723 3.84148 4.08103 3.84078C4.08273 3.88941 4.08435 3.94305 4.08586 4.00216C4.10526 4.76398 4.10359 6.23416 4.09604 9.04806C4.09481 9.50519 4.09382 9.92631 4.09292 10.3144C4.08744 12.6567 4.08478 13.7973 4.04656 14.3955C4.03069 14.6438 4.01015 14.7484 4.00132 14.7846C3.99506 14.7907 3.98721 14.7983 3.97581 14.8093L3.965 14.8197C3.94056 14.8433 3.90779 14.8751 3.87146 14.9133L3.87138 14.9134C3.74625 15.0452 3.65664 15.1014 3.49514 15.1431C3.28775 15.1966 2.96412 15.2233 2.35516 15.2236C1.64244 15.2241 1.29025 15.1652 1.08959 15.0741C0.958663 15.0147 0.857115 14.9276 0.743434 14.6716C0.742272 14.6595 0.740979 14.6448 0.739592 14.6273C0.732912 14.543 0.726121 14.4209 0.719514 14.2621C0.706366 13.9462 0.694844 13.508 0.685171 12.9854C0.665848 11.9414 0.654157 10.5754 0.650922 9.20998C0.647687 7.8446 0.652917 6.48326 0.667317 5.4486C0.674527 4.9306 0.683985 4.49837 0.695641 4.1897C0.699823 4.07895 0.704172 3.98737 0.708565 3.91518C0.955606 3.88926 1.42134 3.88269 2.38791 3.86907C2.42408 3.86856 2.46095 3.86804 2.49853 3.86751ZM4.0529 3.41911C4.04738 3.40005 4.04806 3.39494 4.05143 3.41129C4.0519 3.41358 4.05239 3.41618 4.0529 3.41911ZM0.747671 14.7098C0.749061 14.717 0.749624 14.7211 0.74956 14.7214C0.749496 14.7217 0.7488 14.7181 0.747671 14.7098ZM0.665428 3.92281L0.665449 3.92277L0.665428 3.92281ZM27.4878 3.86777C27.4875 3.8677 27.4909 3.86713 27.4988 3.86628C27.4919 3.86742 27.488 3.86784 27.4878 3.86777ZM27.9805 14.6539C27.9806 14.6542 27.9807 14.6545 27.9808 14.6548C27.9807 14.6546 27.9806 14.6543 27.9805 14.6541L27.9805 14.6539ZM28.0004 14.7202C28.0013 14.7245 28.0017 14.7269 28.0016 14.7267C28.0015 14.7266 28.0011 14.7245 28.0004 14.7202ZM3.07454 12.1867L3.07442 12.1867C1.74512 11.5058 0.505744 12.9263 1.10172 14.1645L1.10183 14.1647C1.29906 14.5741 1.71018 14.7753 2.02067 14.8549C2.3442 14.9379 2.77144 14.9462 3.13905 14.7443L3.1392 14.7442C3.66262 14.4565 3.85229 13.9014 3.83673 13.4443C3.82113 12.9858 3.59544 12.4537 3.07454 12.1867ZM28.3243 14.1245L28.3244 14.1247C28.7592 14.9868 29.9092 15.1866 30.6174 14.5437C31.0046 14.1923 31.123 13.6885 31.064 13.2615C31.0052 12.8365 30.7509 12.3699 30.2494 12.1624C29.6393 11.9099 28.9982 12.0442 28.5818 12.4503C28.1579 12.8637 28.0171 13.5152 28.3243 14.1245Z" stroke="black" stroke-width="1.3"/>
</svg>
