<svg width="22" height="27" viewBox="0 0 22 27" fill="none" xmlns="http://www.w3.org/2000/svg">
<path fill-rule="evenodd" clip-rule="evenodd" d="M2.68919 1C1.75621 1 1 1.75621 1 2.68919V24.3108C1 25.2438 1.75621 26 2.68919 26H18.9054C19.8384 26 20.5946 25.2438 20.5946 24.3108V2.68919C20.5946 1.75621 19.8384 1 18.9054 1H2.68919ZM5.48619 1.67562H2.68919C2.12927 1.67562 1.67561 2.12925 1.67561 2.68919V24.3108C1.67561 24.8707 2.12925 25.3244 2.68919 25.3244H18.9054C19.4653 25.3244 19.919 24.8707 19.919 24.3108V2.68919C19.919 2.12927 19.4653 1.67562 18.9054 1.67562H16.1084L15.6637 3.00965C15.5259 3.42347 15.1384 3.7027 14.7022 3.7027H6.89273C6.45653 3.7027 6.06913 3.42345 5.93122 3.00965L5.48619 1.67562ZM15.3963 1.67562H6.19866L6.57218 2.79591C6.61813 2.93401 6.74727 3.02685 6.89267 3.02685H14.7022C14.8476 3.02685 14.9767 2.934 15.0226 2.79591L15.3963 1.67562Z" stroke="#6C35A8"/>
<path fill-rule="evenodd" clip-rule="evenodd" d="M4.04053 8.43227C4.04053 7.87259 4.49416 7.4187 5.0541 7.4187H6.40533C6.96525 7.4187 7.41891 7.87257 7.41891 8.43227V9.78351C7.41891 10.3434 6.96527 10.7971 6.40533 10.7971H5.0541C4.49418 10.7971 4.04053 10.3434 4.04053 9.78351V8.43227ZM5.0541 8.09434C4.86746 8.09434 4.71617 8.24563 4.71617 8.43227V9.78351C4.71617 9.97015 4.86746 10.1214 5.0541 10.1214H6.40533C6.59198 10.1214 6.74327 9.97015 6.74327 9.78351V8.43227C6.74327 8.24563 6.59198 8.09434 6.40533 8.09434H5.0541Z" stroke="#6C35A8"/>
<path fill-rule="evenodd" clip-rule="evenodd" d="M4.04053 13.4999C4.04053 12.9402 4.49416 12.4863 5.0541 12.4863H6.40533C6.96525 12.4863 7.41891 12.9402 7.41891 13.4999V14.8511C7.41891 15.4111 6.96527 15.8647 6.40533 15.8647H5.0541C4.49418 15.8647 4.04053 15.4111 4.04053 14.8511V13.4999ZM5.0541 13.162C4.86746 13.162 4.71617 13.3133 4.71617 13.4999V14.8511C4.71617 15.0378 4.86746 15.1891 5.0541 15.1891H6.40533C6.59198 15.1891 6.74327 15.0378 6.74327 14.8511V13.4999C6.74327 13.3133 6.59198 13.162 6.40533 13.162H5.0541Z" stroke="#6C35A8"/>
<path fill-rule="evenodd" clip-rule="evenodd" d="M4.04053 18.5675C4.04053 18.0078 4.49416 17.554 5.0541 17.554H6.40533C6.96525 17.554 7.41891 18.0078 7.41891 18.5675V19.9188C7.41891 20.4787 6.96527 20.9323 6.40533 20.9323H5.0541C4.49418 20.9323 4.04053 20.4787 4.04053 19.9188V18.5675ZM5.0541 18.2296C4.86746 18.2296 4.71617 18.3809 4.71617 18.5675V19.9188C4.71617 20.1054 4.86746 20.2567 5.0541 20.2567H6.40533C6.59198 20.2567 6.74327 20.1054 6.74327 19.9188V18.5675C6.74327 18.3809 6.59198 18.2296 6.40533 18.2296H5.0541Z" stroke="#6C35A8"/>
<path fill-rule="evenodd" clip-rule="evenodd" d="M8.77026 9.10796C8.77026 8.92132 8.92155 8.77026 9.1082 8.77026H17.5541C17.7408 8.77026 17.8921 8.92132 17.8921 9.10796C17.8921 9.29461 17.7408 9.4459 17.5541 9.4459H9.1082C8.92155 9.4459 8.77026 9.29461 8.77026 9.10796Z" stroke="#6C35A8"/>
<path fill-rule="evenodd" clip-rule="evenodd" d="M8.77026 14.1756C8.77026 13.9889 8.92155 13.8379 9.1082 13.8379H17.5541C17.7408 13.8379 17.8921 13.9889 17.8921 14.1756C17.8921 14.3622 17.7408 14.5135 17.5541 14.5135H9.1082C8.92155 14.5135 8.77026 14.3622 8.77026 14.1756Z" stroke="#6C35A8"/>
<path fill-rule="evenodd" clip-rule="evenodd" d="M8.77026 19.2432C8.77026 19.0566 8.92155 18.9055 9.1082 18.9055H17.5541C17.7408 18.9055 17.8921 19.0566 17.8921 19.2432C17.8921 19.4299 17.7408 19.5812 17.5541 19.5812H9.1082C8.92155 19.5812 8.77026 19.4299 8.77026 19.2432Z" stroke="#6C35A8"/>
</svg>
