<svg width="22" height="28" viewBox="0 0 22 28" fill="none" xmlns="http://www.w3.org/2000/svg">
<path d="M14.7069 26.1084H6.36593C6.23754 26.1084 6.11441 26.1595 6.02362 26.2505C5.93284 26.3415 5.88184 26.4649 5.88184 26.5936C5.88184 26.7223 5.93284 26.8457 6.02362 26.9367C6.11441 27.0277 6.23754 27.0788 6.36593 27.0788H14.7069C14.8353 27.0788 14.9585 27.0277 15.0492 26.9367C15.14 26.8457 15.191 26.7223 15.191 26.5936C15.191 26.4649 15.14 26.3415 15.0492 26.2505C14.9585 26.1595 14.8353 26.1084 14.7069 26.1084Z" fill="#DB6F3E"/>
<path d="M8.30298 12.5224H13.4231V11.6715C13.4231 5.97441 11.9867 1.60812 10.8869 0.431396C9.7671 1.61777 8.30298 5.9926 8.30298 11.6715V12.5224Z" fill="#9A0000"/>
<path d="M12.6962 0.498047C13.8336 1.24709 14.9244 2.37516 15.8334 3.7695C17.3524 6.12428 18.1631 8.8676 18.1684 11.6717V12.5223H18.9517L12.1861 24.4318H11.7946L14.7631 12.5226H17.5133V11.6717C17.5084 8.99513 16.7348 6.37653 15.2849 4.12875C14.333 2.66855 13.141 1.49557 11.9448 0.809826C12.3699 1.56169 12.7732 2.60722 13.1132 3.86327C13.7356 6.16201 14.0782 8.93526 14.0782 11.6721V12.5227H14.0878L11.1193 24.4318H9.66678L7.64709 12.5226H7.64781V11.6717C7.64781 8.94242 7.99936 6.16852 8.6378 3.86117C8.98962 2.58949 9.40557 1.53326 9.84196 0.779029C7.03557 2.30293 3.72943 6.45469 3.72943 11.6717V12.5223H7.04815L9.06797 24.4318H8.58886L2.73256 12.5226H3.07422V11.6717C3.07422 8.91477 3.99641 6.10416 5.67096 3.75781C6.64537 2.39256 7.82247 1.25753 9.01595 0.500805C4.20461 1.46162 0.544434 6.10521 0.544434 11.6717C0.544434 12.1408 0.879411 12.5223 1.2913 12.5223H2.0022L7.85857 24.4318H6.8693C6.82223 24.432 6.77717 24.451 6.74401 24.4844C6.71084 24.5179 6.69228 24.5632 6.69241 24.6104V25.313H14.2535V24.6104C14.2537 24.5632 14.2351 24.5179 14.202 24.4844C14.1688 24.4509 14.1237 24.432 14.0766 24.4318H12.9401L19.7056 12.5226H20.4348C20.8466 12.5226 21.1817 12.141 21.1817 11.6721C21.1816 6.0999 17.5145 1.45249 12.6962 0.498047ZM2.99082 5.23462C3.13187 5.00236 3.28157 4.77096 3.4358 4.54684C3.46022 4.51135 3.49138 4.48103 3.5275 4.4576C3.56362 4.43418 3.60399 4.41812 3.6463 4.41033C3.68861 4.40254 3.73204 4.40319 3.7741 4.41222C3.81616 4.42126 3.85604 4.43851 3.89145 4.46299C3.92686 4.48747 3.95712 4.5187 3.98049 4.5549C4.00386 4.5911 4.01988 4.63156 4.02765 4.67397C4.03542 4.71638 4.03478 4.75991 4.02577 4.80207C4.01675 4.84423 3.99954 4.8842 3.97512 4.91969C3.82797 5.13356 3.68508 5.3544 3.55045 5.57602C3.50527 5.6504 3.43247 5.70375 3.34805 5.72432C3.26363 5.7449 3.17451 5.73102 3.1003 5.68574C3.02608 5.64046 2.97286 5.56749 2.95233 5.48288C2.9318 5.39826 2.94564 5.309 2.99082 5.23462ZM1.84569 9.98932C1.83903 10.0329 1.82369 10.0746 1.80059 10.1121C1.77748 10.1496 1.74709 10.1821 1.71121 10.2075C1.67533 10.233 1.6347 10.251 1.59175 10.2604C1.54879 10.2698 1.50439 10.2704 1.46119 10.2622C1.41799 10.2541 1.37686 10.2373 1.34028 10.2128C1.30369 10.1884 1.27238 10.1568 1.24822 10.12C1.22406 10.0832 1.20754 10.0419 1.19964 9.99856C1.19175 9.95521 1.19264 9.91071 1.20227 9.86771C1.40748 8.78503 1.74265 7.73121 2.20045 6.72923C2.21831 6.69 2.24371 6.65467 2.27519 6.62527C2.30667 6.59587 2.34362 6.57298 2.38393 6.55789C2.42424 6.54281 2.46712 6.53583 2.51012 6.53735C2.55313 6.53888 2.59541 6.54887 2.63455 6.56678C2.6737 6.58468 2.70894 6.61013 2.73827 6.64169C2.76761 6.67324 2.79045 6.71028 2.8055 6.75068C2.82055 6.79108 2.82751 6.83406 2.82599 6.87716C2.82447 6.92026 2.8145 6.96264 2.79663 7.00188C2.36062 7.95561 2.04127 8.95871 1.84569 9.98932Z" fill="#FF826E"/>
</svg>
