<svg width="77" height="39" viewBox="0 0 77 39" fill="none" xmlns="http://www.w3.org/2000/svg">
<path fill-rule="evenodd" clip-rule="evenodd" d="M39.0054 19.4279H38.7789C29.1595 19.4903 21.2748 27.4556 20.78 37.4962C20.7708 37.6843 20.7998 37.8723 20.8655 38.0488C20.9311 38.2253 21.0319 38.3866 21.1618 38.523C21.2916 38.6593 21.4479 38.7679 21.6209 38.8421C21.794 38.9162 21.9804 38.9544 22.1687 38.9544H55.6337C55.8205 38.9523 56.0051 38.9125 56.1762 38.8373C56.3473 38.7622 56.5015 38.6533 56.6294 38.5171C56.7574 38.3809 56.8566 38.2203 56.921 38.0449C56.9854 37.8695 57.0138 37.6828 57.0043 37.4962C56.5094 27.4555 48.6249 19.4904 39.0054 19.4279Z" fill="#6C35A8"/>
<path fill-rule="evenodd" clip-rule="evenodd" d="M38.8932 1.2915C37.2386 1.2915 35.6212 1.78214 34.2455 2.70137C32.8698 3.62059 31.7975 4.92712 31.1644 6.45574C30.5312 7.98436 30.3655 9.6664 30.6883 11.2892C31.0111 12.9119 31.8079 14.4025 32.9779 15.5725C34.1478 16.7424 35.6384 17.5392 37.2612 17.8619C38.884 18.1847 40.566 18.019 42.0946 17.3858C43.6232 16.7527 44.9297 15.6804 45.849 14.3047C46.7682 12.9289 47.2588 11.3115 47.2588 9.65697C47.2577 7.43861 46.376 5.31139 44.8074 3.74278C43.2388 2.17417 41.1115 1.2925 38.8932 1.2915Z" fill="#CD9DFF"/>
<path fill-rule="evenodd" clip-rule="evenodd" d="M59.5065 0C58.2096 0 56.9419 0.384561 55.8636 1.10505C54.7853 1.82554 53.9449 2.84961 53.4486 4.04774C52.9523 5.24587 52.8225 6.56427 53.0755 7.8362C53.3285 9.10813 53.953 10.2765 54.87 11.1935C55.787 12.1105 56.9553 12.735 58.2273 12.988C59.4992 13.241 60.8176 13.1111 62.0157 12.6149C63.2138 12.1186 64.2379 11.2782 64.9584 10.1999C65.6789 9.12157 66.0634 7.85384 66.0634 6.55699C66.0624 4.81828 65.3713 3.15107 64.1418 1.92161C62.9124 0.692153 61.2452 0.00101496 59.5065 0Z" fill="#CD9DFF"/>
<path fill-rule="evenodd" clip-rule="evenodd" d="M48.9893 19.3639C51.6259 20.91 53.9083 22.9929 55.6883 25.4777C57.4683 27.9624 58.7062 30.7936 59.3218 33.7875H74.9922C75.1805 33.7875 75.3669 33.7493 75.54 33.6751C75.7131 33.6009 75.8693 33.4924 75.9991 33.356C76.129 33.2196 76.2298 33.0583 76.2954 32.8818C76.3611 32.7053 76.3902 32.5173 76.3809 32.3292C75.918 22.9406 68.5158 15.5009 59.5067 15.5009C55.6548 15.5068 51.9292 16.8752 48.9893 19.3639Z" fill="#6C35A8"/>
<path fill-rule="evenodd" clip-rule="evenodd" d="M16.8759 0.0449829C18.1727 0.0449829 19.4404 0.429544 20.5187 1.15004C21.597 1.87053 22.4375 2.89459 22.9337 4.09272C23.43 5.29086 23.5599 6.60925 23.3069 7.88118C23.0539 9.15311 22.4294 10.3215 21.5124 11.2385C20.5953 12.1555 19.427 12.78 18.1551 13.033C16.8831 13.286 15.5647 13.1561 14.3666 12.6598C13.1685 12.1636 12.1444 11.3231 11.4239 10.2448C10.7034 9.16656 10.3189 7.89883 10.3189 6.60198C10.3199 4.86326 11.011 3.19605 12.2405 1.96659C13.4699 0.737136 15.1372 0.0459979 16.8759 0.0449829Z" fill="#CD9DFF"/>
<path fill-rule="evenodd" clip-rule="evenodd" d="M27.3933 19.4089C24.7566 20.955 22.4743 23.0379 20.6943 25.5227C18.9143 28.0074 17.6764 30.8385 17.0608 33.8324H1.39034C1.20203 33.8325 1.01568 33.7942 0.842592 33.7201C0.669504 33.6459 0.51329 33.5374 0.383427 33.401C0.253563 33.2646 0.15276 33.1033 0.0871315 32.9268C0.0215034 32.7503 -0.00758171 32.5623 0.00164604 32.3742C0.464535 22.9856 7.86676 15.5459 16.8759 15.5459C20.7278 15.5518 24.4534 16.9202 27.3933 19.4089Z" fill="#6C35A8"/>
</svg>
