<svg width="25" height="31" viewBox="0 0 25 31" fill="none" xmlns="http://www.w3.org/2000/svg">
<path d="M16.4759 29.871H6.77239C6.62303 29.871 6.47979 29.9305 6.37418 30.0364C6.26856 30.1422 6.20923 30.2858 6.20923 30.4355C6.20923 30.5852 6.26856 30.7288 6.37418 30.8346C6.47979 30.9405 6.62303 30.9999 6.77239 30.9999H16.4759C16.6252 30.9999 16.7685 30.9405 16.8741 30.8346C16.9797 30.7288 17.039 30.5852 17.039 30.4355C17.039 30.2858 16.9797 30.1422 16.8741 30.0364C16.7685 29.9305 16.6252 29.871 16.4759 29.871Z" fill="#DB6F3E"/>
<path d="M9.02588 14.066H14.9823V13.0762C14.9823 6.44844 13.3114 1.36894 12.0319 0C10.7292 1.38017 9.02588 6.4696 9.02588 13.0762V14.066Z" fill="#9A0000"/>
<path d="M14.1367 0.0772705C15.4599 0.94867 16.7289 2.261 17.7863 3.8831C19.5535 6.62253 20.4966 9.81396 20.5028 13.0761V14.0656H21.414L13.5433 27.9206H13.0879L16.5412 14.0659H19.7407V13.0761C19.7349 9.96233 18.835 6.91599 17.1483 4.30104C16.0409 2.60232 14.6542 1.23774 13.2626 0.439978C13.7571 1.31466 14.2262 2.53097 14.6218 3.99219C15.3459 6.66643 15.7445 9.89268 15.7445 13.0766V14.0661H15.7557L12.3022 27.9206H10.6124L8.26285 14.0659H8.26369V13.0761C8.26369 9.901 8.67266 6.67399 9.41539 3.98974C9.82467 2.51034 10.3086 1.28158 10.8162 0.40415C7.55144 2.17697 3.70526 7.00691 3.70526 13.0761V14.0656H7.56608L9.91583 27.9206H9.35846L2.54555 14.0659H2.94302V13.0761C2.94302 9.86884 4.01584 6.59913 5.96393 3.8695C7.0975 2.28124 8.46688 0.960816 9.85531 0.0804789C4.25806 1.19824 0 6.60035 0 13.0761C0 13.6218 0.389695 14.0656 0.868867 14.0656H1.69589L8.50887 27.9206H7.35801C7.30325 27.9208 7.25083 27.9428 7.21225 27.9818C7.17367 28.0207 7.15208 28.0734 7.15222 28.1283V28.9457H15.9484V28.1283C15.9486 28.0734 15.927 28.0207 15.8884 27.9817C15.8498 27.9428 15.7974 27.9208 15.7426 27.9206H14.4204L22.2911 14.0659H23.1394C23.6185 14.0659 24.0083 13.6221 24.0083 13.0765C24.0082 6.59416 19.742 1.18762 14.1367 0.0772705ZM2.846 5.58755C3.01009 5.31735 3.18424 5.04815 3.36366 4.78742C3.39207 4.74613 3.42832 4.71086 3.47034 4.68361C3.51236 4.65636 3.55932 4.63767 3.60854 4.62861C3.65777 4.61955 3.70829 4.6203 3.75722 4.63081C3.80616 4.64132 3.85255 4.66139 3.89374 4.68987C3.93494 4.71835 3.97014 4.75469 3.99732 4.7968C4.02451 4.83892 4.04315 4.88598 4.05219 4.93532C4.06123 4.98466 4.06048 5.03529 4.05 5.08434C4.03951 5.13339 4.01949 5.17988 3.99107 5.22118C3.81989 5.46998 3.65366 5.72689 3.49704 5.98471C3.44448 6.07124 3.35978 6.1333 3.26157 6.15724C3.16336 6.18118 3.05969 6.16504 2.97335 6.11236C2.88702 6.05968 2.8251 5.97479 2.80122 5.87635C2.77733 5.77792 2.79344 5.67408 2.846 5.58755ZM1.51381 11.1189C1.50606 11.1696 1.48822 11.2182 1.46134 11.2618C1.43447 11.3054 1.3991 11.3432 1.35736 11.3728C1.31562 11.4024 1.26836 11.4233 1.21839 11.4342C1.16842 11.4452 1.11677 11.4459 1.0665 11.4364C1.01624 11.4269 0.968405 11.4074 0.92584 11.3789C0.883274 11.3505 0.846852 11.3138 0.818745 11.271C0.790637 11.2281 0.771419 11.1801 0.762235 11.1297C0.753051 11.0792 0.75409 11.0275 0.765289 10.9774C1.00403 9.7179 1.39394 8.49195 1.92652 7.3263C1.9473 7.28065 1.97685 7.23956 2.01347 7.20536C2.05009 7.17116 2.09308 7.14452 2.13998 7.12697C2.18687 7.10942 2.23675 7.1013 2.28678 7.10308C2.3368 7.10485 2.38599 7.11648 2.43153 7.13731C2.47707 7.15813 2.51807 7.18775 2.5522 7.22445C2.58632 7.26116 2.61289 7.30425 2.6304 7.35125C2.64791 7.39825 2.65601 7.44825 2.65424 7.49839C2.65247 7.54853 2.64087 7.59783 2.62009 7.64348C2.11285 8.753 1.74134 9.91996 1.51381 11.1189Z" fill="#FF826E"/>
</svg>
