<svg width="36" height="41" viewBox="0 0 36 41" fill="none" xmlns="http://www.w3.org/2000/svg">
<path fill-rule="evenodd" clip-rule="evenodd" d="M0.206874 0.176523C-0.0438528 0.421718 -0.079542 40.603 0.170957 40.8477C0.333032 41.0065 35.1324 41.0647 35.3872 40.9069C35.5484 40.8071 35.4407 40.6508 34.6548 39.8463C34.0888 39.2665 33.175 38.3206 31.7155 36.8028C31.3154 36.3869 30.3129 35.3488 29.4878 34.496C26.9114 31.8335 25.6639 30.5358 25.2143 30.0501C25.1393 29.9691 24.6892 29.5052 24.2141 29.0195C22.9041 27.6797 20.7428 25.4311 20.3423 24.991C19.964 24.5755 19.2844 24.0527 18.7586 23.7732C18.4781 23.6243 18.1762 23.599 16.2127 23.5596L13.985 23.5149L13.3665 23.2193C12.6314 22.8676 12.092 22.4148 11.1125 21.3271C10.2828 20.4056 7.54477 17.0594 7.12015 16.4481C7.04514 16.34 6.81714 16.0253 6.61347 15.7485C5.8306 14.6853 5.50873 14.2282 4.71381 13.0505C2.72482 10.1044 2.66118 9.84849 4.30488 11.4061C6.48959 13.476 9.98976 16.7871 10.7894 17.54C12.5934 19.2388 13.8684 19.8993 14.3462 19.3831C14.7758 18.9187 14.1685 17.8928 11.3482 14.3191C11.0481 13.9388 10.7208 13.5166 10.6208 13.3806C10.5208 13.2445 10.1934 12.8224 9.89337 12.4423C9.59332 12.0621 9.28645 11.6624 9.21143 11.554C9.13642 11.4455 8.99321 11.2536 8.8932 11.1274C7.67321 9.58707 6.5746 8.11701 6.5746 8.02498C6.5746 7.83069 6.72622 7.89449 7.09219 8.24305C7.28473 8.42645 7.78595 8.8766 8.20603 9.24339C8.6261 9.61019 9.21848 10.1344 9.5224 10.4082C9.82654 10.6823 10.3003 11.0996 10.5753 11.3359C11.004 11.7038 11.3418 12.0055 12.117 12.7112C12.1974 12.7846 12.8532 13.3648 13.574 14.0006C14.2948 14.6363 15.0095 15.2683 15.1623 15.4053C15.5587 15.7605 16.5652 16.4183 16.9458 16.571C17.8409 16.9305 18.0348 15.939 17.3006 14.7564C17.2551 14.683 17.1551 14.503 17.0785 14.3563C16.9558 14.1213 13.9184 10.3358 13.7609 10.2215C13.7272 10.1971 12.7839 9.05666 11.6646 7.68731C10.5453 6.31795 9.57377 5.14222 9.50558 5.07442C9.42375 4.99306 9.41215 4.92125 9.47171 4.86301C9.60355 4.73408 13.294 7.52592 14.6745 8.7988C14.754 8.87216 15.0804 9.15225 15.3998 9.42123C17.0724 10.8295 20.5028 14.158 20.9235 14.7806C21.7132 15.9495 21.841 16.6224 21.6546 18.6333C21.4154 21.2137 21.5168 21.7817 22.3622 22.5928L22.757 22.9719L24.463 22.9547C28.0773 22.9183 30.3313 22.0764 32.5311 19.9417C33.6658 18.8402 34.335 17.867 35.0879 16.2236C36.1462 13.913 36.312 10.0054 35.4357 8.01764C35.365 7.85715 35.3063 7.67708 35.3052 7.61751C35.3036 7.51258 34.7003 6.30395 34.3461 5.69641C33.6801 4.55402 30.9974 2.04094 30.4436 2.04094C30.4275 2.04094 30.1754 1.91 29.8829 1.75017C26.9064 0.121836 25.5796 -0.00175993 11.0952 1.84539e-05C0.565118 0.00135224 0.383042 0.00424184 0.206874 0.176523Z" fill="#0D3D2F"/>
</svg>
