<svg width="27" height="25" viewBox="0 0 27 25" fill="none" xmlns="http://www.w3.org/2000/svg">
<path d="M19.0854 8.09482L14.5385 3.08215L13.0876 4.68154L16.1842 8.09482H19.0854Z" fill="#6C35A8"/>
<path d="M14.1976 0.861419C13.9861 0.669635 13.7148 0.570132 13.4235 0.585843C13.1358 0.599938 12.8716 0.723968 12.6798 0.935392L6.1853 8.09471H9.08684L14.2715 2.37921C14.4633 2.16774 14.5612 1.8928 14.5471 1.60509C14.5331 1.31739 14.409 1.05324 14.1976 0.861419Z" fill="#6C35A8"/>
<path d="M1.63517 11.3815H23.6358C24.3572 11.3815 24.9441 10.7947 24.9441 10.0733C24.9441 9.35191 24.3572 8.76501 23.6358 8.76501H1.63517C0.913775 8.76501 0.326904 9.35191 0.326904 10.0733C0.326904 10.7947 0.913775 11.3815 1.63517 11.3815Z" fill="#6C35A8"/>
<path d="M17.0768 18.2136C17.0768 15.3371 19.4171 12.9969 22.2935 12.9969C22.4514 12.9969 22.6069 13.0068 22.7613 13.0206L22.9916 12.0519H2.2793L5.21074 24.3755H20.0602L20.3733 23.0597C18.4453 22.2929 17.0768 20.4118 17.0768 18.2136Z" fill="#6C35A8"/>
<path d="M21.6916 17.3492C21.76 17.4196 21.7944 17.5168 21.7855 17.6147C21.7764 17.7125 21.7246 17.8016 21.6441 17.8579L19.6541 19.2549L21.2062 20.8439L22.6493 18.8869C22.7076 18.8077 22.7979 18.7583 22.8958 18.7514C22.9985 18.7485 23.0902 18.7816 23.1589 18.8519L23.9985 19.7114L24.4551 16.1176L20.852 16.4901L21.6916 17.3492Z" fill="#6C35A8"/>
<path d="M22.2934 13.6674C19.7866 13.6674 17.7471 15.7068 17.7471 18.2137C17.7471 20.7209 19.7866 22.7604 22.2934 22.7604C24.8003 22.7604 26.8398 20.7209 26.8398 18.2137C26.8398 15.7068 24.8003 13.6674 22.2934 13.6674ZM24.5758 20.4843C24.5594 20.6119 24.4717 20.719 24.3499 20.7599C24.2278 20.8008 24.0933 20.7684 24.0033 20.6761L22.9546 19.6022L21.5115 21.5592C21.4532 21.6384 21.3629 21.6878 21.265 21.6947C21.2572 21.695 21.2493 21.6953 21.2418 21.6953C21.1518 21.6953 21.0654 21.659 21.0018 21.5945L18.8989 19.4415C18.8305 19.3711 18.7961 19.2739 18.8049 19.176C18.8141 19.0781 18.8658 18.9891 18.9463 18.9328L20.9364 17.5359L19.8873 16.4622C19.7977 16.37 19.7682 16.2348 19.8121 16.114C19.8559 15.9929 19.9649 15.9078 20.0929 15.8944L24.8065 15.4073C24.908 15.3992 25.0091 15.4335 25.0808 15.5065C25.1522 15.5798 25.1862 15.6816 25.1734 15.7831L24.5758 20.4843Z" fill="#6C35A8"/>
</svg>
