<svg width="36" height="31" viewBox="0 0 36 31" fill="none" xmlns="http://www.w3.org/2000/svg">
<path d="M24.0004 16.9632L18 14.1362L30.0004 8.48181L36 11.3088L30.0004 14.1358L24.0004 16.9632ZM30.0004 2.827L24.0004 0L18 2.827L30.0004 8.48181L36 5.65481L30.0004 2.827ZM12 11.3088L6 8.48181L0 11.3088L12 16.9632L18 14.1362L12 11.3088ZM12 5.65441L18 2.827L12 0L0 5.65481L6 8.48181L12 5.65441ZM30.0004 15.7975L24.63 18.3278L24.0004 18.6245L23.3708 18.3278L18 15.7975L12.63 18.3278L12 18.6245L11.3704 18.3278L6.0004 15.7975V24.6653L18 31L30.0004 24.6653V15.7975Z" fill="#3E834A"/>
</svg>
