<svg width="50" height="50" viewBox="0 0 50 50" fill="none" xmlns="http://www.w3.org/2000/svg">
<path d="M12.7854 41.151H2.27829C1.31047 41.151 0.5271 41.935 0.5271 42.9022V48.1558C0.5271 49.123 1.31047 49.907 2.27829 49.907H12.7854C13.7533 49.907 14.5366 49.123 14.5366 48.1558V42.9022C14.5366 41.935 13.7533 41.151 12.7854 41.151ZM11.0342 46.4046H4.02948V44.6534H11.0342V46.4046Z" fill="#FF947A"/>
<path d="M30.2976 41.151H19.7905C18.8227 41.151 18.0393 41.935 18.0393 42.9022V48.1558C18.0393 49.123 18.8227 49.907 19.7905 49.907H30.2976C31.2655 49.907 32.0488 49.123 32.0488 48.1558V42.9022C32.0488 41.935 31.2655 41.151 30.2976 41.151ZM28.5465 46.4046H21.5417V44.6534H28.5465V46.4046Z" fill="#FF947A"/>
<path d="M47.8089 41.151H37.3017C36.3339 41.151 35.5505 41.935 35.5505 42.9022V48.1558C35.5505 49.123 36.3339 49.907 37.3017 49.907H47.8089C48.7767 49.907 49.5601 49.123 49.5601 48.1558V42.9022C49.5601 41.935 48.7767 41.151 47.8089 41.151ZM46.0577 46.4046H39.0529V44.6534H46.0577V46.4046Z" fill="#FF947A"/>
<path d="M30.2976 30.6437H19.7905C18.8227 30.6437 18.0393 31.4276 18.0393 32.3949V37.6484C18.0393 38.6157 18.8227 39.3996 19.7905 39.3996H30.2976C31.2655 39.3996 32.0488 38.6157 32.0488 37.6484V32.3949C32.0488 31.4276 31.2655 30.6437 30.2976 30.6437ZM28.5465 35.8972H21.5417V34.1461H28.5465V35.8972Z" fill="#FF947A"/>
<path d="M47.8089 30.6437H37.3017C36.3339 30.6437 35.5505 31.4276 35.5505 32.3949V37.6484C35.5505 38.6157 36.3339 39.3996 37.3017 39.3996H47.8089C48.7767 39.3996 49.5601 38.6157 49.5601 37.6484V32.3949C49.5601 31.4276 48.7767 30.6437 47.8089 30.6437ZM46.0577 35.8972H39.0529V34.1461H46.0577V35.8972Z" fill="#FF947A"/>
<path d="M47.8089 20.1367H37.3017C36.3339 20.1367 35.5505 20.9207 35.5505 21.8879V27.1415C35.5505 28.1087 36.3339 28.8927 37.3017 28.8927H47.8089C48.7767 28.8927 49.5601 28.1087 49.5601 27.1415V21.8879C49.5601 20.9207 48.7767 20.1367 47.8089 20.1367ZM46.0577 25.3903H39.0529V23.6391H46.0577V25.3903Z" fill="#FF947A"/>
<path d="M23.8057 26.6284L16.2878 19.1106L3.51638 31.882C2.83225 32.5661 1.72433 32.5661 1.0402 31.882C0.356067 31.1979 0.356067 30.0899 1.0402 29.4058L15.0497 15.3963C15.7339 14.7122 16.8418 14.7122 17.5259 15.3963L25.0438 22.9141L42.708 5.24988L37.5899 6.1033C36.6372 6.26382 35.7342 5.61763 35.5754 4.6644C35.4167 3.71 36.0611 2.80814 37.0155 2.64878L47.5226 0.89759C48.0095 0.811782 48.6428 0.982815 49.0479 1.38676C49.4583 1.79712 49.6182 2.42054 49.5371 2.91321L47.7859 13.4204C47.6277 14.3753 46.7223 15.018 45.7714 14.8593C44.817 14.7005 44.1726 13.798 44.3314 12.8436L45.1836 7.72723L26.2824 26.6284C25.5977 27.3126 24.4898 27.3126 23.8057 26.6284Z" fill="#FF947A"/>
</svg>
